<svg xmlns="http://www.w3.org/2000/svg" xmlns:xlink="http://www.w3.org/1999/xlink"><defs>
        <path id="a" d="M0 0h36v36H0z"/>
    
        <filter id="a" width="103.1%" height="104%" x="-1.5%" y="-2%" filterUnits="objectBoundingBox">
            <feGaussianBlur in="SourceGraphic" stdDeviation="5"/>
        </filter>
    
        <linearGradient id="a" x1="0%" y1="50%" y2="50%">
            <stop offset="0%" stop-color="#F26A35"/>
            <stop offset="100%" stop-color="#EE3048"/>
        </linearGradient>
    
        <linearGradient id="a" x1="58.615%" x2="89.427%" y1="9.59%" y2="60.851%">
            <stop offset="0%" stop-color="#FF177B"/>
            <stop offset="100%" stop-color="#FFEC73"/>
        </linearGradient>
        <linearGradient id="b" x1="37.54%" x2="1.694%" y1="-44.035%" y2="101.06%">
            <stop offset="0%" stop-color="#064AA2"/>
            <stop offset="100%" stop-color="#63FFD4"/>
        </linearGradient>
        <path id="c" d="M6.817 6.337L.245 0C.092.036 0 .153 0 .35v12.125c0 .166.066.265.147.3l6.67-6.438z"/>
        <path id="e" d="M.271 6.426l3.8-2.123 1.677-.946L8.51 1.843 6.671.025.001 6.463a.46.46 0 0 0 .308-.04"/>
        <linearGradient id="f" x1="77.675%" x2="4.105%" y1="50%" y2="100%">
            <stop offset="0%" stop-color="#FF4521"/>
            <stop offset="100%" stop-color="#8A33DB"/>
        </linearGradient>
        <linearGradient id="h" x1="0%" x2="64.224%" y1="-26.788%" y2="101.754%">
            <stop offset="0%" stop-color="#00A3B5"/>
            <stop offset="100%" stop-color="#D6FFA1"/>
        </linearGradient>
        <path id="i" d="M.399.107a.485.485 0 0 0-.354-.06l6.577 6.346 1.82-1.752L5.7 3.095 1.553.758.399.108z"/>
    
        <linearGradient id="a" x1="58.744%" x2="90.017%" y1="9.59%" y2="60.851%">
            <stop offset="0%" stop-color="#FF177B"/>
            <stop offset="100%" stop-color="#FFEC73"/>
        </linearGradient>
        <linearGradient id="b" x1="37.354%" x2=".971%" y1="-44.035%" y2="101.06%">
            <stop offset="0%" stop-color="#064AA2"/>
            <stop offset="100%" stop-color="#63FFD4"/>
        </linearGradient>
        <path id="c" d="M12.216 11.271L.44 0C.165.064 0 .272 0 .621v21.567c0 .296.118.473.264.532l11.952-11.449z"/>
        <path id="e" d="M.486 11.43l6.807-3.776L10.3 5.97l4.95-2.692L11.954.045.002 11.495c.133.044.368.02.551-.071"/>
        <linearGradient id="f" x1="78.089%" x2="3.418%" y1="50%" y2="100%">
            <stop offset="0%" stop-color="#FF4521"/>
            <stop offset="100%" stop-color="#8A33DB"/>
        </linearGradient>
        <linearGradient id="h" x1="0%" x2="64.224%" y1="-25.656%" y2="100.991%">
            <stop offset="0%" stop-color="#00A3B5"/>
            <stop offset="100%" stop-color="#D6FFA1"/>
        </linearGradient>
        <path id="i" d="M.714.19C.488.069.262.034.08.083L11.867 11.37l3.26-3.116-4.915-2.75-7.43-4.157L.714.191z"/>
    </defs><symbol id="app-store-copy" viewBox="0 0 89 27">
    <g fill="none" fill-rule="nonzero" transform="translate(1 1)">
        <rect width="87" height="24.745" y=".117" stroke="#FFF" rx="12.372"/>
        <g fill="#FFF">
            <path d="M22.992 11.863c-.016-1.76 1.44-2.616 1.507-2.656-.825-1.203-2.103-1.368-2.552-1.38-1.074-.114-2.115.642-2.662.642-.558 0-1.4-.632-2.308-.613-1.168.018-2.26.694-2.86 1.745-1.237 2.143-.314 5.291.87 7.023.594.849 1.286 1.795 2.193 1.762.887-.036 1.218-.566 2.288-.566 1.06 0 1.372.566 2.297.544.951-.014 1.55-.851 2.123-1.708.685-.97.96-1.93.97-1.978-.021-.008-1.847-.705-1.866-2.815M21.246 6.687c.477-.597.803-1.41.712-2.233-.69.03-1.554.478-2.05 1.061-.44.515-.834 1.358-.732 2.151.775.058 1.572-.392 2.07-.98M35.839 18.264h-1.24l-.679-2.135h-2.36l-.647 2.135h-1.206l2.339-7.268h1.444l2.349 7.268zm-2.123-3.03l-.614-1.898a24.434 24.434 0 0 1-.367-1.37h-.021c-.072.31-.188.766-.345 1.37l-.604 1.898h1.95zM41.842 15.58c0 .89-.242 1.595-.726 2.112-.434.46-.972.69-1.615.69-.693 0-1.192-.247-1.495-.743v2.75h-1.164v-5.643c0-.56-.015-1.134-.043-1.723h1.023l.065.831h.022c.388-.626.977-.939 1.768-.939.617 0 1.133.244 1.546.733.412.49.619 1.133.619 1.931zm-1.186.042c0-.51-.114-.93-.345-1.262a1.192 1.192 0 0 0-1.013-.518c-.287 0-.548.097-.78.287-.234.19-.387.44-.459.75a1.513 1.513 0 0 0-.054.353v.875c0 .38.117.702.35.965.234.263.538.394.911.394.438 0 .78-.17 1.023-.507.245-.338.367-.783.367-1.337zM47.866 15.58c0 .89-.242 1.595-.726 2.112-.434.46-.972.69-1.615.69-.693 0-1.192-.247-1.496-.743v2.75h-1.163v-5.643c0-.56-.015-1.134-.043-1.723h1.023l.065.831h.022c.387-.626.976-.939 1.767-.939.617 0 1.134.244 1.547.733.411.49.619 1.133.619 1.931zm-1.186.042c0-.51-.115-.93-.346-1.262a1.19 1.19 0 0 0-1.012-.518c-.287 0-.548.097-.782.287-.233.19-.386.44-.457.75a1.548 1.548 0 0 0-.055.353v.875c0 .38.118.702.35.965.234.262.537.394.912.394.438 0 .78-.17 1.023-.507.245-.338.367-.783.367-1.337zM54.601 16.226c0 .618-.215 1.121-.645 1.51-.473.423-1.133.636-1.979.636-.782 0-1.408-.151-1.88-.453l.268-.97c.51.301 1.071.453 1.681.453.44 0 .78-.1 1.024-.297a.968.968 0 0 0 .367-.792c0-.295-.102-.543-.302-.745-.202-.2-.535-.388-1.002-.56-1.272-.474-1.908-1.169-1.908-2.081 0-.597.225-1.085.673-1.467.449-.381 1.043-.572 1.784-.572.66 0 1.211.116 1.649.346l-.293.949a2.882 2.882 0 0 0-1.395-.335c-.41 0-.733.102-.963.302a.865.865 0 0 0-.293.66c0 .286.112.524.336.71.193.173.545.36 1.055.561.626.252 1.085.546 1.38.884.296.337.443.758.443 1.26M58.458 13.897h-1.282v2.545c0 .647.226.97.679.97.208 0 .38-.018.517-.055l.032.885c-.23.085-.531.129-.905.129-.46 0-.818-.141-1.078-.422-.259-.28-.388-.75-.388-1.412v-2.642h-.764v-.874h.764v-.96l1.143-.345v1.305h1.282v.876M64.234 15.6c0 .806-.23 1.467-.69 1.985-.48.532-1.12.798-1.918.798-.77 0-1.381-.255-1.837-.766-.457-.51-.685-1.153-.685-1.93 0-.811.237-1.476.706-1.994.47-.517 1.105-.776 1.902-.776.77 0 1.386.256 1.854.765.446.496.668 1.134.668 1.919zm-1.206.027c0-.48-.104-.892-.312-1.236-.244-.416-.593-.624-1.045-.624-.466 0-.825.208-1.067.624-.21.344-.313.763-.313 1.258 0 .48.103.894.313 1.237.251.416.602.624 1.057.624.445 0 .793-.213 1.046-.634.214-.353.321-.768.321-1.249zM68.018 14.047a2.025 2.025 0 0 0-.366-.031c-.41 0-.726.153-.949.463-.194.273-.29.619-.29 1.035v2.75h-1.164v-3.59c0-.604-.012-1.155-.034-1.65h1.014l.042 1.003h.032c.124-.345.317-.623.582-.83.26-.189.54-.282.841-.282.108 0 .205.008.291.021l.001 1.111M73.223 15.396c0 .208-.014.384-.043.528h-3.49c.012.518.182.914.506 1.187.294.244.675.366 1.141.366.517 0 .989-.082 1.413-.248l.182.808c-.495.216-1.08.324-1.756.324-.812 0-1.45-.239-1.913-.716-.462-.478-.695-1.121-.695-1.925 0-.79.215-1.448.647-1.973.452-.56 1.063-.84 1.832-.84.754 0 1.326.28 1.713.84.308.444.463.995.463 1.649zm-1.11-.302a1.578 1.578 0 0 0-.226-.895c-.201-.325-.511-.487-.927-.487-.38 0-.69.158-.926.475a1.742 1.742 0 0 0-.344.906h2.423zM30.046 7.795h.267c.228-.418.419-.888.573-1.408.154-.521.253-1.043.297-1.567h1.782v2.975h.446v1.439h-.543V8.28h-2.28v.954h-.542v-1.44zm1.61-2.485a6.657 6.657 0 0 1-.265 1.246 7.367 7.367 0 0 1-.484 1.239h1.494V5.31h-.746zm4.568 1.657c0 .427-.109.76-.328 1-.218.24-.523.36-.913.36-.244 0-.46-.055-.647-.165a1.093 1.093 0 0 1-.431-.476 1.624 1.624 0 0 1-.152-.72c0-.424.109-.755.326-.993.217-.239.523-.358.918-.358.378 0 .677.122.897.366.22.244.33.572.33.986zm-1.9 0c0 .604.223.906.668.906.441 0 .661-.302.661-.906 0-.598-.222-.897-.665-.897-.233 0-.402.077-.506.232-.105.154-.157.376-.157.665zm3.59 1.36c-.395 0-.695-.115-.9-.346-.205-.231-.308-.563-.308-.996 0-.44.107-.778.322-1.015.215-.236.525-.355.931-.355.275 0 .523.051.743.154l-.167.447c-.235-.091-.428-.137-.58-.137-.452 0-.678.3-.678.902 0 .293.056.514.169.661.112.148.277.222.494.222.247 0 .48-.062.701-.185v.485c-.099.058-.205.1-.317.126a1.9 1.9 0 0 1-.41.037zm3.302-2.664v.435h-.85V8.28h-.557V6.098h-.85v-.435h2.257zm.106 0h.604l.531 1.483c.08.212.134.41.16.597h.02c.014-.087.04-.192.077-.316.038-.124.238-.712.6-1.764h.6l-1.117 2.965c-.203.544-.541.816-1.015.816-.122 0-.242-.013-.358-.04v-.44c.083.019.178.028.285.028.268 0 .456-.155.564-.466l.097-.246-1.048-2.617zm5.27 0V8.28h-.557V6.103h-1.17V8.28h-.555V5.663h2.282zm1.348 0v1.05h1.23v-1.05h.554V8.28h-.555V7.151h-1.23V8.28h-.554V5.663h.555zm4.892 1.304c0 .427-.11.76-.328 1-.219.24-.523.36-.913.36-.244 0-.46-.055-.647-.165a1.093 1.093 0 0 1-.432-.476 1.624 1.624 0 0 1-.151-.72c0-.424.109-.755.326-.993.217-.239.523-.358.918-.358.377 0 .676.122.897.366.22.244.33.572.33.986zm-1.9 0c0 .604.223.906.668.906.44 0 .66-.302.66-.906 0-.598-.221-.897-.665-.897-.233 0-.401.077-.506.232-.105.154-.157.376-.157.665zm6.058-.635c0 .31-.18.496-.54.561v.02c.201.023.355.087.462.19a.54.54 0 0 1 .16.406.658.658 0 0 1-.281.571c-.188.133-.462.2-.82.2h-1.246V5.663h1.241c.683 0 1.024.223 1.024.67zm-.486 1.143c0-.126-.049-.215-.146-.268-.098-.053-.244-.08-.44-.08h-.639v.741h.654c.38 0 .571-.13.571-.393zm-.068-1.095c0-.105-.04-.18-.122-.226-.08-.047-.202-.07-.362-.07h-.673v.63h.59c.186 0 .327-.025.423-.073.096-.048.144-.135.144-.261z"/>
        </g>
    </g>
</symbol><symbol id="app-store" viewBox="0 0 132 46">
    <g fill="none" fill-rule="evenodd" transform="translate(1 1)">
        <rect width="129.976" height="44" fill-rule="nonzero" stroke="#FFF" rx="22"/>
        <g fill="#FFF" fill-rule="nonzero">
            <path d="M28.454 20.993c-.028-3.148 2.577-4.679 2.696-4.75-1.475-2.151-3.762-2.445-4.566-2.469-1.92-.202-3.784 1.15-4.763 1.15-.998 0-2.504-1.13-4.128-1.097-2.09.032-4.045 1.242-5.117 3.121-2.213 3.83-.563 9.46 1.557 12.557 1.06 1.518 2.3 3.21 3.922 3.15 1.587-.064 2.18-1.011 4.095-1.011 1.897 0 2.454 1.011 4.108.972 1.703-.025 2.775-1.522 3.798-3.053 1.226-1.736 1.718-3.45 1.738-3.538-.04-.013-3.307-1.26-3.34-5.032M25.33 11.737c.853-1.067 1.437-2.52 1.274-3.993-1.235.055-2.78.855-3.67 1.899-.786.92-1.49 2.427-1.308 3.845 1.388.104 2.813-.7 3.703-1.75"/>
        </g>
        <g fill="#FFF" fill-rule="nonzero">
            <path d="M51.439 32.438H49.22l-1.215-3.818h-4.222l-1.158 3.818h-2.159l4.185-12.996h2.584l4.203 12.996zm-3.8-5.42l-1.098-3.392c-.116-.347-.335-1.164-.655-2.449h-.04c-.128.553-.334 1.37-.616 2.45l-1.08 3.392h3.49zM62.178 27.637c0 1.594-.432 2.853-1.298 3.778-.776.823-1.74 1.235-2.889 1.235-1.241 0-2.134-.443-2.676-1.33v4.916h-2.082v-10.09c0-1-.026-2.026-.077-3.08h1.831l.116 1.487h.04c.694-1.12 1.748-1.68 3.162-1.68 1.105 0 2.028.437 2.766 1.311.737.876 1.107 2.026 1.107 3.453zm-2.12.076c0-.912-.206-1.664-.618-2.256-.45-.616-1.054-.925-1.812-.925-.514 0-.98.172-1.398.511-.418.341-.691.787-.819 1.341a2.705 2.705 0 0 0-.097.633v1.564c0 .68.21 1.255.627 1.726.418.469.961.704 1.63.704.783 0 1.394-.304 1.83-.906.438-.605.656-1.402.656-2.392zM72.956 27.637c0 1.594-.432 2.853-1.298 3.778-.777.823-1.74 1.235-2.89 1.235-1.24 0-2.133-.443-2.676-1.33v4.916H64.01v-10.09c0-1-.026-2.026-.077-3.08h1.831l.116 1.487h.04c.693-1.12 1.747-1.68 3.161-1.68 1.105 0 2.029.437 2.768 1.311.736.876 1.107 2.026 1.107 3.453zm-2.122.076c0-.912-.206-1.664-.618-2.256-.449-.616-1.052-.925-1.81-.925-.514 0-.98.172-1.4.511-.417.341-.69.787-.818 1.341a2.767 2.767 0 0 0-.098.633v1.564c0 .68.21 1.255.626 1.726.418.468.961.704 1.631.704.785 0 1.396-.304 1.831-.906.438-.605.656-1.402.656-2.392zM85.007 28.793c0 1.106-.386 2.005-1.156 2.7-.845.757-2.026 1.137-3.54 1.137-1.398 0-2.519-.27-3.365-.81l.482-1.735c.913.54 1.916.81 3.008.81.785 0 1.395-.177 1.83-.53.438-.354.658-.826.658-1.415 0-.529-.182-.972-.541-1.332-.36-.359-.956-.695-1.792-1.001-2.275-.849-3.414-2.091-3.414-3.723 0-1.066.402-1.94 1.204-2.622.803-.682 1.867-1.022 3.191-1.022 1.183 0 2.168.206 2.95.617L84 21.564c-.736-.398-1.567-.598-2.497-.598-.734 0-1.312.181-1.723.54a1.546 1.546 0 0 0-.523 1.178c0 .513.2.939.6 1.272.345.308.976.643 1.888 1.002 1.12.452 1.94.977 2.468 1.58.53.604.794 1.357.794 2.255M91.908 24.63h-2.295v4.549c0 1.157.404 1.734 1.215 1.734.372 0 .68-.03.925-.096l.057 1.58c-.41.154-.95.231-1.618.231-.823 0-1.465-.252-1.93-.753-.462-.502-.694-1.343-.694-2.526v-4.724h-1.366v-1.562h1.366v-1.716l2.045-.617v2.333h2.295v1.566M102.241 27.675c0 1.44-.41 2.623-1.234 3.548-.86.951-2.005 1.427-3.431 1.427-1.377 0-2.472-.456-3.288-1.369-.817-.912-1.225-2.062-1.225-3.45 0-1.452.423-2.641 1.263-3.566.842-.925 1.976-1.389 3.403-1.389 1.376 0 2.48.458 3.316 1.37.799.885 1.196 2.027 1.196 3.43zm-2.158.048c0-.858-.185-1.595-.557-2.21-.437-.745-1.063-1.116-1.871-1.116-.833 0-1.475.371-1.91 1.115-.373.616-.558 1.365-.558 2.25 0 .86.185 1.598.559 2.21.45.746 1.078 1.118 1.892 1.118.795 0 1.419-.38 1.871-1.135.382-.63.574-1.372.574-2.232zM109.012 24.898a3.625 3.625 0 0 0-.656-.057c-.733 0-1.3.275-1.698.83-.346.488-.52 1.105-.52 1.85v4.917h-2.081v-6.42c0-1.08-.02-2.064-.06-2.95h1.813l.076 1.793h.058c.22-.616.566-1.113 1.04-1.485a2.514 2.514 0 0 1 1.505-.502c.193 0 .367.014.52.038l.003 1.986M118.323 27.309c0 .373-.024.687-.076.944h-6.245c.022.926.326 1.635.905 2.123.526.436 1.208.655 2.043.655.925 0 1.769-.147 2.527-.444l.326 1.445c-.886.386-1.934.58-3.141.58-1.453 0-2.594-.428-3.424-1.282-.827-.854-1.243-2.004-1.243-3.441 0-1.412.385-2.589 1.158-3.527.809-1.002 1.902-1.503 3.277-1.503 1.35 0 2.373.5 3.066 1.503.55.794.827 1.778.827 2.947zm-1.985-.54c.014-.618-.122-1.15-.405-1.6-.36-.58-.915-.87-1.658-.87-.681 0-1.235.283-1.657.849-.347.45-.553.992-.616 1.619l4.336.002z"/>
        </g>
        <text fill="#FFF" font-family="OpenSans-SemiBold, Open Sans" font-size="10" font-weight="500">
            <tspan x="41" y="15">&#x414;&#x43E;&#x441;&#x442;&#x443;&#x43F;&#x43D;&#x43E; &#x432;</tspan>
        </text>
    </g>
</symbol><symbol id="arrow" viewBox="0 0 19 36">
    <path fill="none" fill-rule="evenodd" stroke="#FFF" stroke-width="4" d="M1.642 2l14 16.09-14 15.91"/>
</symbol><symbol id="features-1" viewBox="0 0 90 90">
    <g fill="none" fill-rule="nonzero">
        <path fill="#DCDCDC" d="M45 90c24.853 0 45-20.147 45-45S69.853 0 45 0 0 20.147 0 45s20.147 45 45 45zm0-1.915C21.205 88.085 1.915 68.795 1.915 45S21.205 1.915 45 1.915 88.085 21.205 88.085 45 68.795 88.085 45 88.085z"/>
        <path fill="#FFF" d="M55.81 20c2.314 0 4.19 1.897 4.19 4.237v41.526C60 68.103 58.124 70 55.81 70H33.19C30.875 70 29 68.103 29 65.763V24.237C29 21.897 30.876 20 33.19 20h22.62zm0 1.695H33.19c-1.389 0-2.514 1.138-2.514 2.542v41.526c0 1.404 1.125 2.542 2.513 2.542h22.622c1.388 0 2.513-1.138 2.513-2.542V24.237c0-1.404-1.125-2.542-2.513-2.542zM44.5 61a3.5 3.5 0 1 1 0 7 3.5 3.5 0 0 1 0-7zm0 1.75a1.75 1.75 0 1 0 0 3.5 1.75 1.75 0 0 0 0-3.5zM52.833 23C55.135 23 57 24.882 57 27.205v28.59C57 58.118 55.135 60 52.833 60H36.167C33.865 60 32 58.118 32 55.795v-28.59C32 24.882 33.865 23 36.167 23h16.666zm0 1.682H36.167c-1.381 0-2.5 1.13-2.5 2.523v28.59c0 1.394 1.119 2.523 2.5 2.523h16.666c1.381 0 2.5-1.13 2.5-2.523v-28.59c0-1.394-1.119-2.523-2.5-2.523z"/>
    </g>
</symbol><symbol id="features-2" viewBox="0 0 90 90">
    <g fill="none" fill-rule="nonzero">
        <path fill="#FFF" d="M43.364 24l-.002.522a1.5 1.5 0 1 1-.337 1.25l-3.441.001c-1.304 1.227-1.946 2.734-1.946 4.575 0 4.79 3.442 16.086 6.14 17.415 1.12.551 2.599.94 4.18 1.162a2.753 2.753 0 0 1 2.502-1.561c1.167 0 2.164.705 2.561 1.7 1.786-.161 3.33-.563 4.203-1.214 2.155-1.605 5.74-13.023 5.93-17.538.128-3.058-.461-4.448-1.39-4.535l-.094-.004h-3.695a1.5 1.5 0 1 1-2.086-1.643l.001-.13h5.78c2.404 0 3.482 2.345 3.313 6.384-.21 4.998-3.932 16.853-6.643 18.872-1.153.859-3.058 1.377-5.208 1.573l-.056.005a2.694 2.694 0 0 1-1.406 1.577l-.004 8.79C51.283 66.29 48.695 69 44.091 69c-4.575 0-6.752-2.693-6.324-7.622l.027-.287v-5.208c-.415-2.209-1.866-3.249-4.633-3.249-2.69 0-4.37 1.004-5.215 3.09l-.087.228v2.114c1.922.338 3.379 1.967 3.379 3.926 0 2.203-1.844 3.989-4.12 3.989-2.274 0-4.118-1.786-4.118-3.99 0-1.837 1.283-3.384 3.028-3.847v-2.48l.046-.136c1.05-3.08 3.48-4.667 7.087-4.667 3.551 0 5.774 1.555 6.402 4.543l.049.253.013.149v5.331l-.005.092c-.45 4.162.966 5.998 4.471 5.998 3.496 0 5.345-1.851 5.723-5.804l.024-.286v-8.522c-.993-.223-1.78-.967-2.036-1.918-1.82-.248-3.532-.703-4.853-1.354-3.534-1.74-7.141-13.578-7.141-18.995 0-2.35.864-4.34 2.571-5.912l.238-.212.26-.224h4.487zM27.119 59.775c-1.264 0-2.288.993-2.288 2.217 0 1.224 1.024 2.216 2.288 2.216 1.264 0 2.288-.992 2.288-2.216 0-1.224-1.024-2.217-2.288-2.217z"/>
        <path fill="#DCDCDC" d="M45 90c24.853 0 45-20.147 45-45S69.853 0 45 0 0 20.147 0 45s20.147 45 45 45zm0-1.915C21.205 88.085 1.915 68.795 1.915 45S21.205 1.915 45 1.915 88.085 21.205 88.085 45 68.795 88.085 45 88.085z"/>
    </g>
</symbol><symbol id="features-3" viewBox="0 0 90 90">
    <g fill="none" fill-rule="nonzero">
        <path fill="#DCDCDC" d="M45 90c24.853 0 45-20.147 45-45S69.853 0 45 0 0 20.147 0 45s20.147 45 45 45zm0-1.915C21.205 88.085 1.915 68.795 1.915 45S21.205 1.915 45 1.915 88.085 21.205 88.085 45 68.795 88.085 45 88.085z"/>
        <path fill="#FFF" d="M51.037 22C54.33 22 57 24.786 57 28.222V36h.955C61.293 36 64 38.754 64 42.152v16.696C64 62.246 61.293 65 57.955 65h-25.91C28.707 65 26 62.246 26 58.848V42.152C26 38.754 28.707 36 32.045 36H34v-7.778C34 24.786 36.67 22 39.963 22h11.074zm6.918 15.758L57 37.757V38H34v-.243h-1.955c-2.384 0-4.318 1.968-4.318 4.395v16.696c0 2.427 1.934 4.394 4.318 4.394h25.91c2.384 0 4.318-1.967 4.318-4.394V42.152c0-2.427-1.934-4.394-4.318-4.394zM45 43c2.761 0 5 2.396 5 5.352 0 1.955-.989 3.719-2.535 4.657-.002.155.006.341.03.878.027.598.037.968.03 1.376C47.485 57.54 46.812 59 45 59c-1.81 0-2.49-1.457-2.546-3.744-.01-.407-.004-.77.018-1.378.02-.538.025-.73.021-.895C40.97 52.038 40 50.288 40 48.352 40 45.396 42.239 43 45 43zm0 1.784c-1.84 0-3.333 1.597-3.333 3.568 0 1.382.74 2.621 1.883 3.213.485.252.58.624.606 1.264.01.26.007.43-.018 1.118-.02.571-.027.904-.018 1.261.036 1.436.302 2.008.88 2.008.574 0 .833-.564.858-1.987.007-.357-.002-.695-.028-1.256-.032-.713-.037-.855-.03-1.112.02-.654.11-1.025.61-1.275 1.164-.583 1.923-1.835 1.923-3.234 0-1.97-1.492-3.568-3.333-3.568zm6.037-21.006H39.963c-2.352 0-4.26 1.99-4.26 4.444V36h19.593v-7.778c0-2.454-1.907-4.444-4.259-4.444z"/>
    </g>
</symbol><symbol id="features-4" viewBox="0 0 90 90">
    <g fill="none" fill-rule="nonzero">
        <path fill="#DCDCDC" d="M45 90c24.853 0 45-20.147 45-45S69.853 0 45 0 0 20.147 0 45s20.147 45 45 45zm0-1.915C21.205 88.085 1.915 68.795 1.915 45S21.205 1.915 45 1.915 88.085 21.205 88.085 45 68.795 88.085 45 88.085z"/>
        <path fill="#FFF" d="M51.545 25l.135.011C58.486 26.143 62 30.105 62 36.696c0 6.644-3.593 10.096-10.455 10.096H34.199V52H52v2H34.199v12h-1.688l-.001-12H28v-2h4.51v-5.208H28V45.07h4.51V25h19.035zm-.07 1.723H34.2v18.346h17.346c5.952 0 8.767-2.704 8.767-8.373 0-5.702-2.872-8.96-8.836-9.973z"/>
    </g>
</symbol><symbol id="function-1" viewBox="0 0 64 64">
    <g fill="none" fill-rule="nonzero">
        <path fill="#DCDCDC" d="M32 64c17.673 0 32-14.327 32-32C64 14.327 49.673 0 32 0 14.327 0 0 14.327 0 32c0 17.673 14.327 32 32 32zm0-1.362C15.079 62.638 1.362 48.921 1.362 32S15.079 1.362 32 1.362 62.638 15.079 62.638 32 48.921 62.638 32 62.638z"/>
        <g fill="#FF5252">
            <path d="M49.549 26.144c1.677 0 3.037-1.39 3.037-3.106 0-1.715-1.36-3.106-3.037-3.106-1.678 0-3.038 1.39-3.038 3.106 0 1.715 1.36 3.106 3.038 3.106zm0-1.38c-.932 0-1.688-.773-1.688-1.726s.756-1.726 1.688-1.726c.932 0 1.687.773 1.687 1.726s-.755 1.725-1.687 1.725zM38.75 39.948c1.677 0 3.037-1.39 3.037-3.106s-1.36-3.106-3.037-3.106c-1.678 0-3.038 1.39-3.038 3.106 0 1.715 1.36 3.106 3.038 3.106zm0-1.38c-.932 0-1.688-.773-1.688-1.726s.756-1.726 1.688-1.726c.931 0 1.687.773 1.687 1.726s-.756 1.725-1.687 1.725zM24.576 30.975c1.677 0 3.037-1.39 3.037-3.106 0-1.715-1.36-3.106-3.037-3.106-1.678 0-3.038 1.39-3.038 3.106s1.36 3.106 3.038 3.106zm0-1.38c-.932 0-1.688-.773-1.688-1.726s.756-1.725 1.688-1.725c.931 0 1.687.772 1.687 1.725 0 .953-.756 1.726-1.687 1.726zM14.451 44.78c1.678 0 3.038-1.391 3.038-3.107 0-1.715-1.36-3.106-3.038-3.106-1.677 0-3.037 1.39-3.037 3.106s1.36 3.106 3.037 3.106zm0-1.381c-.932 0-1.687-.773-1.687-1.726s.755-1.725 1.687-1.725 1.688.772 1.688 1.725c0 .953-.756 1.726-1.688 1.726z"/>
            <path d="M47.748 24.484l-8.259 10.749 1.062.852 8.258-10.748zM22.709 28.636l-7.17 10.805 1.117.775 7.17-10.805zM26.687 28.653l10.621 6.207-.67 1.198-10.621-6.206z"/>
        </g>
    </g>
</symbol><symbol id="function-2" viewBox="0 0 64 64">
    
    <g fill="none" fill-rule="evenodd">
        <path fill="#DCDCDC" fill-rule="nonzero" d="M32 64c17.673 0 32-14.327 32-32C64 14.327 49.673 0 32 0 14.327 0 0 14.327 0 32c0 17.673 14.327 32 32 32zm0-1.362C15.079 62.638 1.362 48.921 1.362 32S15.079 1.362 32 1.362 62.638 15.079 62.638 32 48.921 62.638 32 62.638z"/>
        <path d="M14 14h36v36H14z"/>
        <g transform="translate(14 14)">
            <mask id="b" fill="#fff">
                <use xlink:href="#a"/>
            </mask>
            <g fill="#FF5252" mask="url(#b)">
                <path d="M26.707 3.25c.614.007 1.22.257 1.659.688a852.142 852.142 0 0 1 3.696 3.696 2.41 2.41 0 0 1 .687 1.66c.022 7.028.022 14.057 0 21.085-.011 1.224-1.063 2.355-2.367 2.367-8.254.026-16.507.026-24.761 0-1.228-.011-2.355-1.063-2.367-2.367-.026-8.254-.026-16.507 0-24.761.011-1.234 1.083-2.355 2.367-2.367 7.028-.022 14.057-.022 21.086 0zM5.637 4.479C5.035 4.48 4.487 5 4.48 5.626c-.026 8.25-.078 16.502 0 24.753.009.592.52 1.134 1.148 1.14 8.25.026 16.502.076 24.753 0 .594-.009 1.134-.525 1.14-1.148.022-7.025.066-14.052 0-21.077a1.175 1.175 0 0 0-.333-.798c-1.226-1.233-2.45-2.471-3.69-3.69a1.176 1.176 0 0 0-.8-.328c-7.02-.022-14.042 0-21.062 0z"/>
                <path d="M25.125 3.253a.645.645 0 0 1 .557.611c0 1.772.006 3.543 0 5.314-.011 1.236-1.082 2.355-2.367 2.367-3.542.011-7.085.011-10.628 0-1.225-.012-2.362-1.061-2.366-2.381v-5.3a.647.647 0 0 1 .613-.613H25.07l.056.002zM11.548 4.478c0 1.566-.014 3.133 0 4.7.01.595.52 1.134 1.147 1.14 3.54.011 7.08.033 10.62 0 .595-.01 1.138-.525 1.14-1.156V4.478H11.548zM26.26 16.207c1.23.012 2.362 1.065 2.367 2.381v13.545c-.042.26-.18.504-.424.583-.061.02-.127.02-.19.03H7.99c-.127-.02-.258-.042-.361-.117-.155-.112-.222-.3-.253-.496 0-4.52-.015-9.04 0-13.56.012-1.228 1.066-2.353 2.367-2.366a2576.44 2576.44 0 0 1 16.517 0zm-16.5 1.227c-.6.002-1.15.513-1.157 1.148v12.937H27.4c0-4.315.04-8.63 0-12.945a1.18 1.18 0 0 0-1.148-1.14c-5.497-.018-10.995 0-16.493 0z"/>
            </g>
        </g>
    </g>
</symbol><symbol id="function-3" viewBox="0 0 64 64">
    <g fill="none" fill-rule="nonzero">
        <path fill="#DCDCDC" d="M32 64c17.673 0 32-14.327 32-32C64 14.327 49.673 0 32 0 14.327 0 0 14.327 0 32c0 17.673 14.327 32 32 32zm0-1.362C15.079 62.638 1.362 48.921 1.362 32S15.079 1.362 32 1.362 62.638 15.079 62.638 32 48.921 62.638 32 62.638z"/>
        <path fill="#FF5252" d="M31.66 16.34c8.514 0 15.475 6.651 15.971 15.041l3.308-4.013 1.05.867-4.973 6.031-5.73-5.994.984-.941 4.005 4.189c-.426-7.703-6.806-13.818-14.615-13.818-8.085 0-14.639 6.554-14.639 14.638 0 8.085 6.554 14.639 14.639 14.639 3.758 0 7.29-1.422 9.977-3.927l.285-.273.955.971a15.948 15.948 0 0 1-11.217 4.59c-8.837 0-16-7.163-16-16 0-8.836 7.163-16 16-16zm-3.405 9.378l.576.909c3.022 4.775 4.53 7.99 4.53 9.799a5.106 5.106 0 1 1-10.212 0c0-1.757 1.423-4.842 4.276-9.394l.255-.405.575-.909zm0 2.557c-2.494 4.042-3.744 6.8-3.744 8.15a3.745 3.745 0 1 0 7.489 0c0-1.35-1.25-4.108-3.745-8.15zm6.157-5.673l.546.864c3.023 4.774 4.531 7.99 4.531 9.798 0 2.773-2.031 4.996-4.718 5.11l-.22.006v-1.362c2.026 0 3.577-1.642 3.577-3.754 0-1.355-1.26-4.13-3.775-8.198l-.042.062-.657.952-.236.34c-.493.711-.89 1.27-1.25 1.76l-.153.205-1.091-.815a68.19 68.19 0 0 0 1.61-2.265l.656-.95c.206-.3.371-.538.523-.756l.112-.16.587-.837z"/>
    </g>
</symbol><symbol id="function-4" viewBox="0 0 64 64">
    <g fill="none" fill-rule="nonzero">
        <path fill="#DCDCDC" d="M32 64c17.673 0 32-14.327 32-32C64 14.327 49.673 0 32 0 14.327 0 0 14.327 0 32c0 17.673 14.327 32 32 32zm0-1.362C15.079 62.638 1.362 48.921 1.362 32S15.079 1.362 32 1.362 62.638 15.079 62.638 32 48.921 62.638 32 62.638z"/>
        <g fill="#FF5252">
            <path d="M22.873 18H46v23.695C46 44.643 44.882 46 42.551 46H18V26.018h3.855v13.7h1.018V18zM17 25.018V47h25.538C45.481 47 47 45.154 47 41.695V17H21.867v8.018H17z"/>
            <path d="M27.469 32.969A.469.469 0 0 1 27 32.5c0-4.135 3.365-7.5 7.5-7.5 2.003 0 3.887.78 5.303 2.197a.468.468 0 1 1-.663.663 6.516 6.516 0 0 0-4.64-1.922 6.57 6.57 0 0 0-6.563 6.562c0 .259-.21.469-.468.469z"/>
            <path d="M39.89 28.75h-2.578a.469.469 0 1 1 0-.938h2.344V25.47a.469.469 0 1 1 .938 0v2.576a.705.705 0 0 1-.705.705zM34.5 40a7.448 7.448 0 0 1-5.303-2.197.468.468 0 1 1 .663-.663 6.517 6.517 0 0 0 4.64 1.922 6.57 6.57 0 0 0 6.563-6.562.469.469 0 1 1 .937 0c0 4.135-3.365 7.5-7.5 7.5z"/>
            <path d="M28.875 40a.469.469 0 0 1-.469-.469v-2.576c0-.39.316-.705.705-.705h2.576a.469.469 0 1 1 0 .938h-2.343v2.343c0 .26-.21.469-.469.469z"/>
        </g>
    </g>
</symbol><symbol id="function-5" viewBox="0 0 64 64">
    <g fill="none" fill-rule="nonzero">
        <path fill="#DCDCDC" d="M32 63.97c17.656 0 31.97-14.314 31.97-31.97S49.655.03 32 .03.03 14.345.03 32 14.345 63.97 32 63.97zm0-1.361C15.095 62.609 1.391 48.905 1.391 32S15.095 1.391 32 1.391 62.609 15.095 62.609 32 48.905 62.609 32 62.609z"/>
        <g fill="#FF5252">
            <path d="M20.524 20.402l7.08 7.866 1.017-.916-7.079-7.866z"/>
            <path d="M24.573 29.013a5.478 5.478 0 1 0 0-10.957 5.478 5.478 0 0 0 0 10.957zm0-1.37a4.109 4.109 0 1 1 0-8.217 4.109 4.109 0 0 1 0 8.217zM47.587 21.77a7.19 7.19 0 0 1 0 10.17L31.608 47.917A7.19 7.19 0 1 1 21.44 37.75l15.979-15.98a7.19 7.19 0 0 1 10.168 0zm-.968.97a5.82 5.82 0 0 0-8.232 0L22.408 38.717a5.82 5.82 0 1 0 8.232 8.232l15.979-15.98a5.82 5.82 0 0 0 0-8.23z"/>
            <path d="M32.002 32.666l4.842 4.842-7.747 7.747a3.424 3.424 0 1 1-4.842-4.842l7.747-7.747zm0 1.936l-6.779 6.78a2.054 2.054 0 1 0 2.905 2.905l6.78-6.78-2.906-2.905z"/>
        </g>
    </g>
</symbol><symbol id="function-6" viewBox="0 0 64 64">
    <g fill="none" fill-rule="nonzero">
        <path fill="#DCDCDC" d="M32 64c17.673 0 32-14.327 32-32C64 14.327 49.673 0 32 0 14.327 0 0 14.327 0 32c0 17.673 14.327 32 32 32zm0-1.362C15.079 62.638 1.362 48.921 1.362 32S15.079 1.362 32 1.362 62.638 15.079 62.638 32 48.921 62.638 32 62.638z"/>
        <path fill="#FF5252" d="M36.085 44.89c-.478 2.27-1.812 3.404-4.002 3.404-2.19 0-3.58-1.135-4.168-3.404h8.17zm-4.427-26.553c4.955 0 8.254 2.59 9.778 7.64l.095.326.025.09v9.884l4.086 5.265v2.644h-27.94v-2.652l4.26-5.265v-9.867l.02-.082c1.34-5.274 4.61-7.983 9.676-7.983zm0 1.361c-4.3 0-7.009 2.144-8.25 6.563l-.084.312v10.178l-4.26 5.265v.808H44.28v-.816l-4.085-5.265v-10.16c-1.33-4.635-4.134-6.885-8.537-6.885zM32 16.34c1.23 0 1.936.636 2.12 1.907h-4.254c.193-1.271.904-1.907 2.134-1.907z"/>
    </g>
</symbol><symbol id="function-7" viewBox="0 0 64 64">
    <g fill="none" fill-rule="nonzero">
        <path fill="#FF5252" d="M32.34 48.34c8.837 0 16-7.163 16-16 0-8.836-7.163-16-16-16-8.836 0-16 7.164-16 16 0 8.837 7.164 16 16 16zm0-1.361c-8.084 0-14.638-6.554-14.638-14.639 0-8.084 6.554-14.638 14.638-14.638 8.085 0 14.639 6.554 14.639 14.638 0 8.085-6.554 14.639-14.639 14.639z"/>
        <path fill="#DCDCDC" d="M32 64c17.673 0 32-14.327 32-32C64 14.327 49.673 0 32 0 14.327 0 0 14.327 0 32c0 17.673 14.327 32 32 32zm0-1.362C15.079 62.638 1.362 48.921 1.362 32S15.079 1.362 32 1.362 62.638 15.079 62.638 32 48.921 62.638 32 62.638z"/>
        <path fill="#FF5252" d="M28.406 25.872c-3.25 0-5.255 4.167-2.807 7.156 1.535 1.874 3.716 4.246 6.544 7.119l.48.488.486-.484c3.21-3.206 5.263-5.6 6.175-7.22.77-1.369 1.176-3.008.994-4.322-.235-1.692-1.403-2.737-3.347-2.737-2.087 0-3.603.643-4.455 1.924-1.199-1.27-2.561-1.924-4.07-1.924zm-1.754 6.293c-1.716-2.096-.352-4.931 1.754-4.931 1.342 0 2.558.715 3.677 2.209l.778 1.039.412-1.231c.452-1.347 1.613-2.017 3.658-2.017 1.256 0 1.856.536 1.998 1.562.137.989-.198 2.34-.832 3.466-.79 1.404-2.617 3.56-5.466 6.438-2.567-2.625-4.561-4.805-5.979-6.535z"/>
    </g>
</symbol><symbol id="function-8" viewBox="0 0 64 64">
    <g fill="none" fill-rule="nonzero">
        <path fill="#DCDCDC" d="M32 64c17.673 0 32-14.327 32-32C64 14.327 49.673 0 32 0 14.327 0 0 14.327 0 32c0 17.673 14.327 32 32 32zm0-1.362C15.079 62.638 1.362 48.921 1.362 32S15.079 1.362 32 1.362 62.638 15.079 62.638 32 48.921 62.638 32 62.638z"/>
        <path fill="#FF5252" d="M39.735 22C42.091 22 44 24.052 44 26.583v2.653L50 26v15l-6-3.149v1.566C44 41.948 42.09 44 39.735 44h-20.47C16.909 44 15 41.948 15 39.417V26.583C15 24.052 16.91 22 19.265 22h20.47zm0 1.833h-20.47c-1.413 0-2.56 1.232-2.56 2.75v12.834c0 1.518 1.147 2.75 2.56 2.75h20.47c1.413 0 2.56-1.232 2.56-2.75V26.583c0-1.518-1.147-2.75-2.56-2.75z"/>
    </g>
</symbol><symbol id="logo" viewBox="0 0 190 59">
    <g fill="none" fill-rule="evenodd">
        <path d="M36.615 43c.648 0 1.24.136 1.777.406.536.27.998.662 1.388 1.178.389.514.69 1.147.902 1.9.212.755.318 1.618.318 2.592 0 .889-.12 1.712-.359 2.47a6.059 6.059 0 0 1-1.024 1.97 4.73 4.73 0 0 1-1.607 1.305c-.629.312-1.333.469-2.111.469-.664 0-1.23-.103-1.7-.307a4.172 4.172 0 0 1-1.262-.852V59H30.08V43.22h1.746c.37 0 .613.175.729.523l.231 1.1a6.182 6.182 0 0 1 1.655-1.332c.617-.34 1.342-.511 2.174-.511zm-9.358.22v11.896H24.4V48.17c0-.178.009-.372.028-.586.02-.212.045-.425.076-.642a5.666 5.666 0 0 1-.51.939 6.336 6.336 0 0 0-.23.318l-.539.76c-.22.31-.468.66-.746 1.048l-.845 1.19c-.67.95-1.43 2.025-2.278 3.222-.108.163-.25.321-.422.476a.866.866 0 0 1-.596.232H16.59V43.232h2.858v6.945c0 .178-.01.374-.029.586-.02.212-.044.427-.075.644.17-.38.34-.692.509-.94l.03-.045a207.971 207.971 0 0 0 .728-1.022 413.574 413.574 0 0 0 1.59-2.25c.671-.95 1.435-2.025 2.29-3.222.11-.17.252-.33.429-.48a.902.902 0 0 1 .601-.227h1.736zM2.36 43.17c.2 0 .399.043.596.128.196.086.36.255.491.51l2.8 5.008c.123.233.24.477.347.736.108.26.208.521.3.783.093-.262.192-.525.296-.788.104-.262.218-.505.341-.73l2.777-5.01c.139-.26.304-.433.497-.514.192-.082.39-.122.59-.122h2.36v11.918h-2.58v-6.632c0-.27.014-.576.04-.916.028-.34.072-.656.134-.95l-3.494 6.423c-.17.333-.44.499-.81.499h-.3c-.371 0-.64-.166-.81-.499l-3.54-6.457a11.46 11.46 0 0 1 .184 1.9v6.632H0V43.171h2.36zm33.273 2.091c-.595 0-1.1.126-1.516.377-.417.252-.81.604-1.18 1.061v5.333c.324.394.676.673 1.059.835a3.16 3.16 0 0 0 1.243.244c.432 0 .821-.082 1.168-.244.347-.162.642-.41.885-.742s.43-.752.562-1.257c.13-.507.196-1.104.196-1.792 0-.697-.056-1.285-.167-1.768-.113-.484-.272-.876-.48-1.177a1.91 1.91 0 0 0-.758-.662 2.368 2.368 0 0 0-1.012-.208zM111.64 38.079c.28 0 .535.057.763.173.229.116.424.284.587.505.164.22.29.494.38.821.09.326.135.7.135 1.123 0 .378-.05.73-.15 1.057-.1.326-.242.61-.428.848-.186.24-.411.427-.676.563a1.936 1.936 0 0 1-.896.204c-.293 0-.542-.05-.746-.146a1.925 1.925 0 0 1-.556-.402V45H109v-6.826h.637c.144 0 .235.069.274.206l.088.538a2.65 2.65 0 0 1 .712-.609c.266-.153.576-.23.928-.23zm18.276.015c.307 0 .59.051.852.153.261.102.486.252.676.45.189.197.336.44.443.725.105.287.159.612.159.977 0 .168-.018.28-.054.336-.036.057-.102.086-.196.086h-3.207c.013.292.057.544.132.756.075.212.176.39.302.53.125.14.275.245.45.314.174.069.37.103.585.103.206 0 .383-.025.534-.073.15-.049.28-.102.391-.161.111-.058.206-.112.284-.16a.422.422 0 0 1 .215-.073c.086 0 .151.033.196.1l.3.397c-.125.15-.265.278-.422.381a2.414 2.414 0 0 1-.5.254 2.727 2.727 0 0 1-.543.14 3.583 3.583 0 0 1-.543.043c-.346 0-.667-.059-.962-.178a2.133 2.133 0 0 1-.769-.525 2.44 2.44 0 0 1-.51-.859 3.479 3.479 0 0 1-.183-1.18c0-.355.055-.686.164-.995a2.37 2.37 0 0 1 .47-.803c.204-.228.453-.408.744-.54.292-.132.623-.198.992-.198zm-13.302 0c.306 0 .59.051.852.153.261.102.486.252.675.45.19.197.337.44.443.725.106.287.16.612.16.977 0 .168-.018.28-.055.336-.035.057-.1.086-.195.086h-3.207c.013.292.057.544.132.756.075.212.176.39.301.53.126.14.276.245.45.314.175.069.37.103.586.103.205 0 .383-.025.533-.073.15-.049.281-.102.392-.161.11-.058.206-.112.284-.16a.422.422 0 0 1 .215-.073c.085 0 .15.033.196.1l.3.397c-.125.15-.266.278-.422.381a2.414 2.414 0 0 1-.5.254 2.727 2.727 0 0 1-.543.14 3.583 3.583 0 0 1-.544.043c-.345 0-.667-.059-.962-.178a2.133 2.133 0 0 1-.768-.525 2.44 2.44 0 0 1-.51-.859 3.479 3.479 0 0 1-.183-1.18c0-.355.054-.686.164-.995a2.37 2.37 0 0 1 .47-.803c.204-.228.452-.408.744-.54.292-.132.623-.198.992-.198zm23.01.08v3.21c0 .07-.003.149-.012.235a4.487 4.487 0 0 1-.032.262c.066-.154.133-.281.201-.382l2.17-3.054a.752.752 0 0 1 .156-.185.325.325 0 0 1 .22-.086h.637v5.123h-1.053v-3.21a3.482 3.482 0 0 1 .04-.487 4.308 4.308 0 0 1-.096.204c-.03.062-.064.118-.1.168l-2.17 3.06a.863.863 0 0 1-.156.183.323.323 0 0 1-.22.087h-.637v-5.128h1.053zm8.24 0v5.123h-1.003v-2.099h-.289a.914.914 0 0 0-.235.025.531.531 0 0 0-.159.07.548.548 0 0 0-.118.11 1.567 1.567 0 0 0-.1.147l-.935 1.37a.772.772 0 0 1-.243.285c-.092.061-.231.092-.418.092h-.725l1.347-1.863a.955.955 0 0 1 .519-.452 1.923 1.923 0 0 1-.617-.191 1.415 1.415 0 0 1-.411-.316 1.16 1.16 0 0 1-.228-.395 1.339 1.339 0 0 1-.07-.424c0-.184.034-.365.104-.543.07-.177.182-.336.336-.475.153-.138.351-.25.594-.336a2.66 2.66 0 0 1 .88-.128h1.772zm-13.786 0v1.984h2.159v-1.984h1.047v5.123h-1.047v-2.325h-2.16v2.325h-1.052v-5.123h1.053zm-13.303 0v4.31h1.831v-4.31h1.053v4.31h1.831v-4.31h1.048v5.123h-6.816v-5.123h1.053zm-9.488.773a1.3 1.3 0 0 0-.693.179 1.978 1.978 0 0 0-.54.51v2.375c.146.195.307.331.481.41.175.079.369.118.58.118.412 0 .733-.154.962-.462.23-.308.346-.767.346-1.376 0-.315-.026-.584-.078-.807a1.584 1.584 0 0 0-.226-.545.877.877 0 0 0-.357-.306 1.152 1.152 0 0 0-.475-.096zm35.574-.06h-.74c-.17 0-.31.026-.425.076a.716.716 0 0 0-.421.457.974.974 0 0 0-.045.286c0 .251.088.448.262.592.175.145.41.217.708.217h.66v-1.628zm-30.228-.01c-.382 0-.682.112-.9.337-.22.224-.358.539-.417.944h2.483c0-.18-.025-.35-.077-.505a1.189 1.189 0 0 0-.222-.406 1.028 1.028 0 0 0-.365-.272 1.216 1.216 0 0 0-.502-.098zm13.302 0c-.382 0-.682.112-.9.337-.22.224-.358.539-.417.944h2.483c0-.18-.025-.35-.076-.505a1.189 1.189 0 0 0-.223-.406 1.028 1.028 0 0 0-.365-.272 1.216 1.216 0 0 0-.502-.098zm21.377-12.25v4.31h2.158v-4.31h1.049v4.31h.915v2.225c0 .1-.028.18-.083.238a.283.283 0 0 1-.216.088h-.65V31.75h-4.227v-5.122h1.054zm-27.721-2.11v2.035c.404.02.771.095 1.101.226.33.13.61.31.842.537.232.228.411.5.539.814.127.315.19.666.19 1.055 0 .388-.063.74-.19 1.054a2.376 2.376 0 0 1-.539.814 2.534 2.534 0 0 1-.842.54c-.33.133-.697.209-1.101.229v1.667h-.985v-1.667a3.386 3.386 0 0 1-1.101-.229 2.531 2.531 0 0 1-.843-.54 2.376 2.376 0 0 1-.538-.814 2.79 2.79 0 0 1-.191-1.054c0-.385.064-.735.191-1.05.127-.314.307-.586.538-.814a2.54 2.54 0 0 1 .843-.54c.33-.132.696-.208 1.101-.228v-2.034h.985zm11.897 2.015c.28 0 .535.058.763.174.229.115.425.283.588.504.163.22.29.494.38.821.09.326.134.7.134 1.123 0 .378-.05.73-.15 1.057-.099.326-.242.61-.427.849-.187.24-.412.427-.676.562a1.936 1.936 0 0 1-.896.204c-.294 0-.543-.049-.747-.146a1.94 1.94 0 0 1-.556-.402v2.175h-1.052v-6.825h.636c.144 0 .235.068.274.205l.088.538c.209-.252.447-.454.713-.608.266-.154.575-.23.928-.23zm11.746 0c.287 0 .542.047.765.143.224.095.412.23.564.404.151.174.267.382.347.62.08.24.12.505.12.797v3.254h-.47a.445.445 0 0 1-.23-.047c-.052-.032-.097-.096-.132-.193l-.103-.418a4.591 4.591 0 0 1-.377.314c-.124.093-.253.17-.384.234a1.831 1.831 0 0 1-.426.143 2.44 2.44 0 0 1-.502.048c-.203 0-.391-.029-.566-.086a1.238 1.238 0 0 1-.452-.258 1.22 1.22 0 0 1-.302-.43 1.507 1.507 0 0 1-.11-.603c0-.197.051-.39.154-.577.103-.187.272-.356.51-.505.236-.149.548-.272.935-.37.387-.096.864-.152 1.432-.165v-.341c0-.368-.077-.643-.23-.824-.153-.181-.38-.271-.676-.271-.202 0-.372.025-.51.078a2.27 2.27 0 0 0-.357.168c-.1.06-.19.116-.269.168a.445.445 0 0 1-.25.078.297.297 0 0 1-.183-.058.463.463 0 0 1-.125-.143l-.191-.352a2.82 2.82 0 0 1 2.018-.808zm-17.817.015c.368 0 .702.062 1.001.186.299.123.553.3.764.527.21.228.373.504.487.829.114.325.172.69.172 1.095s-.058.77-.172 1.095a2.373 2.373 0 0 1-.487.831c-.211.23-.465.406-.764.53a2.592 2.592 0 0 1-1.001.186c-.372 0-.708-.062-1.007-.186a2.16 2.16 0 0 1-.766-.53 2.36 2.36 0 0 1-.49-.83 3.29 3.29 0 0 1-.17-1.096c0-.405.056-.77.17-1.095.115-.325.278-.601.49-.829.213-.228.468-.404.766-.527a2.605 2.605 0 0 1 1.007-.186zm58.453 0c.307 0 .59.051.852.153.261.102.486.252.675.45.19.197.338.44.444.726.106.286.159.611.159.976 0 .168-.018.28-.054.337-.036.057-.101.085-.196.085h-3.207c.013.292.058.544.132.756.075.213.176.39.301.53.126.14.276.245.451.314s.37.103.585.103c.205 0 .383-.024.533-.073.15-.049.281-.102.392-.16.111-.06.206-.113.284-.161a.415.415 0 0 1 .216-.073c.084 0 .15.033.195.1l.3.397c-.125.15-.265.278-.422.382a2.41 2.41 0 0 1-.5.253 2.733 2.733 0 0 1-.543.141 3.576 3.576 0 0 1-.543.043c-.346 0-.667-.06-.963-.179a2.138 2.138 0 0 1-.768-.524 2.44 2.44 0 0 1-.51-.86 3.492 3.492 0 0 1-.182-1.18c0-.355.054-.686.163-.994.11-.308.266-.576.47-.804a2.2 2.2 0 0 1 .744-.54 2.38 2.38 0 0 1 .992-.198zm-23.785 0c.369 0 .703.062 1.001.186.3.123.553.3.764.527.21.228.373.504.487.829.115.325.171.69.171 1.095s-.056.77-.17 1.095a2.374 2.374 0 0 1-.488.831c-.21.23-.465.406-.764.53a2.587 2.587 0 0 1-1.001.186c-.372 0-.707-.062-1.006-.186a2.155 2.155 0 0 1-.767-.53 2.36 2.36 0 0 1-.489-.83 3.29 3.29 0 0 1-.171-1.096c0-.405.057-.77.171-1.095.114-.325.277-.601.49-.829.212-.228.467-.404.766-.527a2.605 2.605 0 0 1 1.006-.186zm-54.032.08v3.21a4.545 4.545 0 0 1-.044.497c.065-.154.132-.281.2-.382l2.17-3.053a.765.765 0 0 1 .156-.187.326.326 0 0 1 .22-.085h.637v5.124h-1.053v-3.21a3.468 3.468 0 0 1 .04-.487 4.02 4.02 0 0 1-.096.203 1.2 1.2 0 0 1-.1.168l-2.17 3.06a.836.836 0 0 1-.156.182.32.32 0 0 1-.22.088H109v-5.128h1.053zm47.251 0v3.21c0 .07-.004.15-.012.236a4.549 4.549 0 0 1-.032.261c.065-.154.132-.281.2-.382l2.17-3.053a.752.752 0 0 1 .157-.187.323.323 0 0 1 .22-.085h.636v5.124h-1.052v-3.21a3.129 3.129 0 0 1 .039-.487 4.021 4.021 0 0 1-.096.203 1.2 1.2 0 0 1-.1.168l-2.17 3.06a.824.824 0 0 1-.156.182.318.318 0 0 1-.22.088h-.637v-5.128h1.053zm16.813 0v1.984h2.159v-1.984h1.048v5.124h-1.048v-2.326h-2.16v2.326h-1.052v-5.124h1.053zm-58.39 0v1.984h2.16v-1.984h1.047v5.124h-1.047v-2.326h-2.16v2.326h-1.052v-5.124h1.052zm23.506-.015c.072 0 .143.017.213.05.07.034.132.1.184.196l1.356 2.38c.045.088.087.182.125.283l.11.301c.036-.1.073-.201.113-.301.039-.101.08-.195.127-.282l1.336-2.381c.05-.1.11-.166.182-.198a.523.523 0 0 1 .215-.048h.857v5.139h-.945v-3.1c0-.107.006-.228.02-.364a5.73 5.73 0 0 1 .048-.38l-1.59 2.934a.39.39 0 0 1-.128.143.306.306 0 0 1-.176.053h-.113a.295.295 0 0 1-.174-.053.405.405 0 0 1-.125-.143l-1.62-2.948c.02.117.036.245.051.384.015.14.022.263.022.374v3.1h-.95v-5.139h.862zm29.337.015v1.984h2.159v-1.984h1.048v5.124h-1.048v-2.326h-2.16v2.326h-1.052v-5.124h1.053zm15.926 0v5.123h-1.053v-5.123h1.053zm-4.886 0v1.95h.97c.346 0 .637.042.876.127.238.086.431.2.578.344.146.144.253.311.318.5.065.19.098.386.098.59 0 .238-.041.455-.122.65a1.422 1.422 0 0 1-.36.51 1.638 1.638 0 0 1-.583.334c-.23.08-.493.118-.79.118h-1.984v-5.123h1zm-31.603 2.883a6.436 6.436 0 0 0-.95.093c-.258.049-.467.11-.627.186a.824.824 0 0 0-.345.268.597.597 0 0 0-.105.342c0 .12.019.224.056.31.038.085.09.155.157.21a.619.619 0 0 0 .235.12c.09.026.188.038.296.038.274 0 .51-.052.707-.158a2.22 2.22 0 0 0 .576-.46v-.949zm-24.446-2.15v3.652c.532-.037.94-.212 1.227-.527.285-.315.428-.747.428-1.296 0-.55-.143-.982-.428-1.299-.286-.316-.695-.492-1.227-.53zm-.92 0c-.532.038-.941.214-1.227.53-.285.317-.428.75-.428 1.3 0 .548.143.98.428 1.295.286.315.695.49 1.227.527v-3.651zm12.494.04c-.267 0-.499.06-.692.18a1.98 1.98 0 0 0-.542.509v2.376c.147.194.308.33.483.41.175.078.368.117.58.117.41 0 .732-.154.962-.462.23-.308.345-.767.345-1.376 0-.315-.026-.584-.078-.807a1.584 1.584 0 0 0-.225-.544.887.887 0 0 0-.358-.307 1.152 1.152 0 0 0-.475-.096zm28.95-.015c-.457 0-.796.158-1.019.47-.221.314-.332.758-.332 1.334 0 .576.11 1.018.332 1.329.223.309.562.464 1.019.464.45 0 .786-.155 1.006-.464.22-.31.33-.753.33-1.329s-.11-1.02-.33-1.334c-.22-.312-.556-.47-1.006-.47zm-34.668 0c-.458 0-.797.158-1.02.47-.22.314-.332.758-.332 1.334 0 .576.111 1.018.333 1.329.222.309.561.464 1.019.464.45 0 .786-.155 1.006-.464.22-.31.33-.753.33-1.329s-.11-1.02-.33-1.334c-.22-.312-.556-.47-1.006-.47zm51.168 1.97h-.975v1.612h.984c.154 0 .288-.02.404-.063a.82.82 0 0 0 .289-.17.667.667 0 0 0 .171-.26.943.943 0 0 0 .057-.331.896.896 0 0 0-.052-.304.656.656 0 0 0-.162-.25.77.77 0 0 0-.286-.172 1.302 1.302 0 0 0-.43-.063zm7.304-2.025c-.381 0-.682.113-.9.337-.22.224-.358.54-.416.944h2.482c0-.18-.025-.349-.076-.505a1.19 1.19 0 0 0-.223-.406 1.023 1.023 0 0 0-.365-.272 1.214 1.214 0 0 0-.502-.098zm-62.35-12.25v4.31h.916v2.225c0 .1-.029.18-.086.239a.293.293 0 0 1-.218.088h-.65v-1.738h-3.952v1.43a.346.346 0 0 1-.071.212c-.048.064-.12.096-.218.096h-.666v-2.517h.151c.115 0 .227-.017.339-.052a.769.769 0 0 0 .318-.214c.101-.107.197-.259.289-.454.091-.197.174-.456.247-.777.073-.321.138-.715.193-1.18.056-.465.1-1.02.132-1.668h3.276zm8.46 0v4.31h2.16v-4.31h1.047v4.31h.916v2.225c0 .1-.028.18-.083.238a.283.283 0 0 1-.216.088h-.65v-1.738h-4.227v-5.122H134zm18.277-.08c.362 0 .681.06.958.181.275.12.52.291.736.512l-.279.392a.55.55 0 0 1-.093.1.2.2 0 0 1-.127.035.311.311 0 0 1-.174-.06 4.729 4.729 0 0 0-.215-.133 1.38 1.38 0 0 0-.742-.193c-.229 0-.429.042-.6.126a1.171 1.171 0 0 0-.43.358 1.605 1.605 0 0 0-.26.568 3.01 3.01 0 0 0-.086.751c0 .288.03.544.093.768.062.225.151.414.266.568.117.154.257.271.422.352.165.08.35.12.556.12.202 0 .367-.025.494-.075a1.52 1.52 0 0 0 .319-.166c.084-.06.157-.116.217-.166a.295.295 0 0 1 .194-.075c.084 0 .15.034.196.1l.298.397a2 2 0 0 1-.401.382 2.299 2.299 0 0 1-.975.394 3.336 3.336 0 0 1-.533.043c-.31 0-.6-.06-.87-.178a2.028 2.028 0 0 1-.704-.518c-.201-.226-.36-.502-.475-.829a3.328 3.328 0 0 1-.174-1.117c0-.378.052-.73.156-1.052.105-.323.258-.602.458-.837.201-.234.45-.417.747-.55a2.51 2.51 0 0 1 1.028-.198zm-34.218 0c.307 0 .59.051.852.153.261.103.486.252.676.45.189.197.336.44.442.726.107.286.16.611.16.976 0 .168-.018.28-.054.337-.036.057-.102.085-.196.085h-3.207c.013.292.057.544.132.756.075.213.176.39.301.53.126.14.276.245.45.314.175.069.37.103.586.103.205 0 .383-.024.533-.073.15-.048.281-.102.392-.16.112-.059.206-.113.284-.16a.415.415 0 0 1 .216-.074c.085 0 .15.034.195.1l.3.397c-.125.15-.265.278-.422.382a2.414 2.414 0 0 1-.5.253 2.727 2.727 0 0 1-.543.141 3.583 3.583 0 0 1-.543.043c-.346 0-.667-.06-.962-.178a2.133 2.133 0 0 1-.769-.525 2.44 2.44 0 0 1-.51-.86 3.492 3.492 0 0 1-.183-1.18c0-.355.055-.686.164-.994.11-.308.266-.576.47-.803.205-.229.452-.408.744-.54.293-.133.623-.199.992-.199zm49.768 0c.307 0 .59.051.852.153.26.103.486.252.675.45.19.197.337.44.444.726.105.286.159.611.159.976 0 .168-.018.28-.054.337-.036.057-.102.085-.196.085h-3.207c.013.292.057.544.132.756.075.213.176.39.301.53.126.14.276.245.451.314s.37.103.585.103c.205 0 .383-.024.533-.073.15-.048.281-.102.392-.16.111-.059.206-.113.284-.16a.415.415 0 0 1 .216-.074c.084 0 .15.034.195.1l.3.397c-.125.15-.265.278-.422.382a2.424 2.424 0 0 1-.5.253 2.733 2.733 0 0 1-.543.141 3.576 3.576 0 0 1-.543.043c-.346 0-.668-.06-.963-.178a2.133 2.133 0 0 1-.768-.525 2.44 2.44 0 0 1-.51-.86 3.492 3.492 0 0 1-.183-1.18c0-.355.054-.686.164-.994.11-.308.266-.576.47-.803a2.2 2.2 0 0 1 .744-.54 2.38 2.38 0 0 1 .992-.199zm-6.713.08v3.21a4.546 4.546 0 0 1-.044.497c.066-.154.132-.28.2-.382l2.17-3.053a.765.765 0 0 1 .157-.186.328.328 0 0 1 .22-.085h.636v5.123H163.4v-3.21a3.467 3.467 0 0 1 .04-.487 4.02 4.02 0 0 1-.096.203 1.2 1.2 0 0 1-.1.168l-2.17 3.06a.836.836 0 0 1-.156.183.32.32 0 0 1-.22.087h-.637v-5.127h1.053zm-21.121 0v3.21c0 .07-.004.15-.013.236a4.55 4.55 0 0 1-.031.261c.065-.154.132-.28.2-.382l2.17-3.053a.752.752 0 0 1 .156-.186.326.326 0 0 1 .22-.085h.637v5.123h-1.053v-3.21a3.129 3.129 0 0 1 .04-.487 4.02 4.02 0 0 1-.096.203 1.2 1.2 0 0 1-.1.168l-2.17 3.06a.824.824 0 0 1-.156.183.318.318 0 0 1-.22.087h-.637v-5.127h1.053zm15.921 0v2.155h.427a.664.664 0 0 0 .343-.08.665.665 0 0 0 .234-.246l.95-1.537a.599.599 0 0 1 .495-.291h.822l-1.229 1.923c-.077.13-.16.236-.244.317a.873.873 0 0 1-.314.185c.16.047.293.119.4.214.106.096.201.218.286.37l1.238 2.114h-.724c-.186 0-.33-.032-.434-.096a.777.777 0 0 1-.261-.281l-.848-1.497a.671.671 0 0 0-.269-.281.783.783 0 0 0-.376-.09h-.496v2.25h-1.052V15.08h1.052zm-27.588 0v3.21c0 .07-.004.15-.013.236a4.55 4.55 0 0 1-.032.261c.066-.154.133-.28.201-.382l2.17-3.053a.765.765 0 0 1 .156-.186.326.326 0 0 1 .22-.085h.637v5.123h-1.053v-3.21a3.128 3.128 0 0 1 .04-.487 4.02 4.02 0 0 1-.096.203 1.2 1.2 0 0 1-.1.168l-2.17 3.06a.824.824 0 0 1-.156.183.318.318 0 0 1-.22.087h-.637v-5.127h1.053zm-18.463-.014c.072 0 .143.016.213.05.07.033.131.099.184.195l1.356 2.381c.046.087.087.181.125.282l.11.301c.036-.1.073-.201.112-.301.04-.101.082-.195.128-.282l1.336-2.38a.39.39 0 0 1 .182-.199.525.525 0 0 1 .215-.047h.857v5.138h-.945v-3.1c0-.107.006-.228.02-.364a5.73 5.73 0 0 1 .048-.379l-1.591 2.933a.4.4 0 0 1-.127.144.312.312 0 0 1-.177.052h-.112a.296.296 0 0 1-.174-.052.401.401 0 0 1-.125-.144l-1.62-2.948c.019.117.037.246.051.385.015.139.022.263.022.373v3.1H109v-5.138h.862zm35.804.015v1.984h2.16V15.08h1.048v5.123h-1.048v-2.326h-2.16v2.326h-1.052V15.08h1.052zm-21.145.838h-1.4c-.03.47-.072.89-.126 1.261-.054.372-.116.7-.185.987-.071.286-.149.532-.233.738a3.24 3.24 0 0 1-.265.52h2.209v-3.506zm43.324-.136c-.381 0-.682.113-.9.337-.22.224-.358.54-.417.944h2.483c0-.18-.025-.349-.076-.505a1.19 1.19 0 0 0-.223-.406 1.023 1.023 0 0 0-.365-.272 1.214 1.214 0 0 0-.502-.098zm-49.768 0c-.382 0-.682.113-.9.337-.219.224-.358.54-.417.944h2.483c0-.18-.025-.349-.076-.505a1.2 1.2 0 0 0-.223-.406 1.023 1.023 0 0 0-.365-.272 1.216 1.216 0 0 0-.502-.098zM72.144 12.276a1.172 1.172 0 0 0-.279-.847 1.13 1.13 0 0 0-1.617-.116c-.232.205-.37.49-.392.8-.021.311.078.612.279.848a1.133 1.133 0 0 0 1.617.116c.231-.205.37-.49.392-.8M85.306 37.59c.304.023.6-.077.833-.284.23-.204.37-.489.39-.8a1.173 1.173 0 0 0-.277-.848 1.132 1.132 0 0 0-1.618-.115 1.17 1.17 0 0 0-.392.8c-.02.311.078.612.28.848.2.235.48.377.784.399M98 27.505C98 12.315 85.912 0 71 0S44 12.314 44 27.505c0 13.186 9.109 24.203 21.266 26.882v-16.62a.321.321 0 0 0-.091-.226L62.4 34.713a.308.308 0 0 0-.222-.093h-2.84a.31.31 0 0 0-.29.207c-.152.404-.402.768-.724 1.053-.474.42-1.08.652-1.707.652h-.025a2.59 2.59 0 0 1-1.874-.856 2.685 2.685 0 0 1-.706-1.96c.043-.717.36-1.372.892-1.843a2.574 2.574 0 0 1 3.677.262c.2.235.357.502.466.794a.31.31 0 0 0 .29.204h3.36c.139 0 .27.056.368.156l3.509 3.575c.098.1.153.233.153.375v17.427c1.157.188 2.34.302 3.543.334V33.287a.321.321 0 0 0-.091-.225L62.4 25.139a.311.311 0 0 0-.221-.094h-5.335a.31.31 0 0 0-.29.206 2.66 2.66 0 0 1-.725 1.054c-.474.42-1.08.652-1.706.652H54.1a2.593 2.593 0 0 1-1.877-.856 2.687 2.687 0 0 1-.705-1.96c.043-.717.36-1.372.891-1.843a2.574 2.574 0 0 1 3.677.262c.201.235.358.501.467.793a.31.31 0 0 0 .29.205h4.357a.316.316 0 0 0 .312-.318v-3.174a.319.319 0 0 0-.204-.297 2.645 2.645 0 0 1-1.666-2.662 2.656 2.656 0 0 1 .89-1.818 2.573 2.573 0 0 1 3.677.262c.456.535.681 1.219.633 1.927a2.657 2.657 0 0 1-.89 1.818 2.57 2.57 0 0 1-.78.476.315.315 0 0 0-.2.296v3.418c0 .084.033.166.091.226l7.028 7.159a.1.1 0 0 0 .114.023.104.104 0 0 0 .064-.098V14.969a.318.318 0 0 0-.204-.297A2.645 2.645 0 0 1 68.4 12.01a2.656 2.656 0 0 1 .89-1.818 2.572 2.572 0 0 1 3.677.261c.456.535.681 1.22.633 1.927a2.657 2.657 0 0 1-.89 1.818 2.57 2.57 0 0 1-.78.477.315.315 0 0 0-.2.296v19.65c0 .066.049.092.064.098a.101.101 0 0 0 .114-.023l7.027-7.16a.322.322 0 0 0 .092-.224V21.34a.319.319 0 0 0-.204-.298 2.645 2.645 0 0 1-1.666-2.661 2.658 2.658 0 0 1 .89-1.819 2.573 2.573 0 0 1 3.677.262c.456.535.681 1.22.633 1.927a2.656 2.656 0 0 1-.89 1.819 2.569 2.569 0 0 1-.78.475.316.316 0 0 0-.2.296v5.726c0 .175.14.318.312.318h4.365a.31.31 0 0 0 .29-.206c.151-.404.402-.769.724-1.054a2.572 2.572 0 0 1 3.677.262c.456.534.681 1.219.633 1.927a2.654 2.654 0 0 1-.89 1.818c-.52.461-1.199.696-1.891.645a2.624 2.624 0 0 1-2.25-1.697.315.315 0 0 0-.291-.208h-5.349a.305.305 0 0 0-.22.094l-7.776 7.92a.321.321 0 0 0-.09.225V55a26.614 26.614 0 0 0 3.543-.334l.001-14.878c0-.142.054-.275.152-.376l3.51-3.575c.098-.1.23-.155.368-.155h3.58c.139-.489.411-.923.791-1.26a2.575 2.575 0 0 1 3.677.261c.456.536.681 1.22.633 1.928a2.653 2.653 0 0 1-.89 1.818 2.576 2.576 0 0 1-1.891.645 2.614 2.614 0 0 1-2.318-1.904h-3.064a.308.308 0 0 0-.222.093l-2.776 2.828a.322.322 0 0 0-.092.225v14.07C88.891 51.709 98 40.692 98 27.507m-41.307 5.206a1.132 1.132 0 0 0-.832.283 1.17 1.17 0 0 0-.39.8c-.022.311.076.613.278.848a1.13 1.13 0 0 0 1.617.116c.231-.205.37-.49.391-.8a1.17 1.17 0 0 0-.278-.848 1.13 1.13 0 0 0-.786-.399m31.115-3.418c.304.025.6-.077.833-.283.23-.205.37-.489.39-.8a1.173 1.173 0 0 0-.277-.848 1.132 1.132 0 0 0-1.618-.115 1.17 1.17 0 0 0-.392.8c-.02.311.078.612.28.848.2.235.48.377.784.398m-24.421-11.92a1.172 1.172 0 0 0-.279-.848 1.13 1.13 0 0 0-1.617-.115 1.17 1.17 0 0 0-.391.8c-.022.31.077.612.278.848a1.133 1.133 0 0 0 1.618.115c.23-.205.37-.49.39-.8m17.123 2.074c.231-.204.37-.489.391-.8a1.17 1.17 0 0 0-.278-.848 1.133 1.133 0 0 0-1.618-.115 1.17 1.17 0 0 0-.391.8c-.021.311.078.612.28.848a1.13 1.13 0 0 0 1.616.115m-25.523 4.087c.2.235.3.536.278.847-.021.312-.16.596-.391.801a1.133 1.133 0 0 1-1.617-.116 1.171 1.171 0 0 1-.28-.847c.022-.311.16-.595.392-.8a1.134 1.134 0 0 1 1.618.115"/>
    </g>
</symbol><symbol id="mini-bg-1" viewBox="0 0 337 394">
    <g fill="none" fill-rule="nonzero" opacity=".15">
        <path fill="#DCDCDC" d="M140.03 393.81c108.694 0 196.809-88.115 196.809-196.81C336.839 88.305 248.724.19 140.029.19 31.334.19-56.78 88.305-56.78 197c0 108.695 88.115 196.81 196.81 196.81zm0-8.375C35.96 385.435-48.406 301.07-48.406 197c0-104.07 84.365-188.435 188.434-188.435C244.1 8.565 328.464 92.93 328.464 197c0 104.07-84.365 188.435-188.435 188.435z"/>
        <g fill="#FF8A65">
            <path d="M68.7 125.656l43.595 48.387 6.269-5.636L74.97 120.02z"/>
            <path d="M93.632 178.625c18.632 0 33.735-15.088 33.735-33.7 0-18.612-15.103-33.7-33.735-33.7-18.631 0-33.735 15.088-33.735 33.7 0 18.612 15.104 33.7 33.735 33.7zm0-8.425c-13.973 0-25.301-11.316-25.301-25.275 0-13.959 11.328-25.275 25.301-25.275 13.974 0 25.302 11.316 25.302 25.275 0 13.959-11.328 25.275-25.302 25.275zM235.27 134.076c17.292 17.292 17.307 45.312.034 62.585l-98.296 98.296c-17.273 17.273-45.293 17.258-62.585-.033-17.291-17.292-17.306-45.312-.033-62.585l98.296-98.296c17.273-17.273 45.293-17.258 62.585.033zm-5.957 5.958c-13.998-13.998-36.68-14.01-50.664-.027l-98.295 98.296c-13.983 13.983-13.971 36.666.026 50.663 13.998 13.998 36.681 14.01 50.664.027l98.296-98.296c13.983-13.983 13.971-36.666-.027-50.663z"/>
            <path d="M139.35 201.08l29.817 29.818-47.658 47.659c-8.225 8.225-21.568 8.218-29.802-.016-8.234-8.234-8.241-21.577-.016-29.802l47.658-47.659zm.006 11.921l-41.702 41.701c-4.935 4.936-4.93 12.941.01 17.882 4.94 4.94 12.946 4.944 17.881.01l41.701-41.702-17.89-17.89z"/>
        </g>
    </g>
</symbol><symbol id="mini-bg-2" viewBox="0 0 444 905">
    
    <g fill="none" fill-rule="evenodd" opacity=".1">
        <path fill="#FF8A65" d="M941.9 210.068C863.24 181.183 824.593 58.61 668.923 17.84 513.253-22.932 334.344-15.932 239.24 120.068c-95.105 136-14 394-115.5 433s-196.5 273.137-43.5 287.126c153 13.988 477.316-113.34 533-121.733 55.683-8.393 214 62.683 309 81.607s206 121.545 206-19.868c0-141.414 5.055-216.25-90.643-306.19-95.697-89.942-17.037-235.058-95.697-263.942z" style="mix-blend-mode:multiply"/>
        <path fill="#FF5252" d="M924.614 349.429c-68.531-25.156-102.202-131.902-237.826-167.41-135.624-35.507-291.496-29.41-374.354 89.03-82.859 118.44-12.198 343.13-100.628 377.094S40.61 886.015 173.908 898.197c133.298 12.182 415.853-98.706 464.367-106.015 48.513-7.31 186.444 54.589 269.21 71.07 82.768 16.48 179.475 105.852 179.475-17.303 0-123.156 4.404-188.329-78.97-266.657-83.376-78.33-14.844-204.708-83.376-229.863z" filter="url(#a)" style="mix-blend-mode:multiply" transform="matrix(1 0 0 -1 0 1069)"/>
    </g>
</symbol><symbol id="mini-bg" viewBox="0 0 337 394">
    <g fill="none" fill-rule="nonzero" opacity=".15">
        <path fill="#DCDCDC" d="M140.03 393.81c108.694 0 196.809-88.115 196.809-196.81C336.839 88.305 248.724.19 140.029.19 31.334.19-56.78 88.305-56.78 197c0 108.695 88.115 196.81 196.81 196.81zm0-8.375C35.96 385.435-48.406 301.07-48.406 197c0-104.07 84.365-188.435 188.434-188.435C244.1 8.565 328.464 92.93 328.464 197c0 104.07-84.365 188.435-188.435 188.435z"/>
        <g fill="#FF8A65">
            <path d="M68.7 125.656l43.595 48.387 6.269-5.636L74.97 120.02z"/>
            <path d="M93.632 178.625c18.632 0 33.735-15.088 33.735-33.7 0-18.612-15.103-33.7-33.735-33.7-18.631 0-33.735 15.088-33.735 33.7 0 18.612 15.104 33.7 33.735 33.7zm0-8.425c-13.973 0-25.301-11.316-25.301-25.275 0-13.959 11.328-25.275 25.301-25.275 13.974 0 25.302 11.316 25.302 25.275 0 13.959-11.328 25.275-25.302 25.275zM235.27 134.076c17.292 17.292 17.307 45.312.034 62.585l-98.296 98.296c-17.273 17.273-45.293 17.258-62.585-.033-17.291-17.292-17.306-45.312-.033-62.585l98.296-98.296c17.273-17.273 45.293-17.258 62.585.033zm-5.957 5.958c-13.998-13.998-36.68-14.01-50.664-.027l-98.295 98.296c-13.983 13.983-13.971 36.666.026 50.663 13.998 13.998 36.681 14.01 50.664.027l98.296-98.296c13.983-13.983 13.971-36.666-.027-50.663z"/>
            <path d="M139.35 201.08l29.817 29.818-47.658 47.659c-8.225 8.225-21.568 8.218-29.802-.016-8.234-8.234-8.241-21.577-.016-29.802l47.658-47.659zm.006 11.921l-41.702 41.701c-4.935 4.936-4.93 12.941.01 17.882 4.94 4.94 12.946 4.944 17.881.01l41.701-41.702-17.89-17.89z"/>
        </g>
    </g>
</symbol><symbol id="my-health-rus" viewBox="0 0 66 66">
    
    <g fill="none" fill-rule="nonzero">
        <g fill="#FFF">
            <path d="M98.882 12v15.088h-2.89V18.41c0-.2.005-.418.015-.652 0-.235.028-.475.054-.714L92.308 24.8a1.28 1.28 0 0 1-.473.548 1.237 1.237 0 0 1-.674.186h-.444c-.237.005-.47-.06-.674-.186a1.28 1.28 0 0 1-.473-.548l-3.753-7.777c.018.248.035.49.05.728.011.24.018.46.018.659v8.678H83V12h2.869a.907.907 0 0 1 .286.063c.088.035.169.089.236.16.08.09.147.193.199.305l3.635 7.662c.127.253.253.536.37.819.12.283.237.573.346.868.109-.303.237-.598.345-.889.11-.29.237-.565.384-.828l3.625-7.622a1.24 1.24 0 0 1 .199-.306.658.658 0 0 1 .236-.159.907.907 0 0 1 .286-.063h.374l2.492-.01zM105.329 17.281a5.617 5.617 0 0 1 1.995.34 4.363 4.363 0 0 1 1.543.973c.44.436.781.96 1.002 1.535.246.65.367 1.34.357 2.034.01.7-.11 1.394-.357 2.05-.22.58-.561 1.109-1.002 1.55-.439.431-.964.765-1.543.98a5.981 5.981 0 0 1-4.001 0 4.445 4.445 0 0 1-1.559-.98 4.327 4.327 0 0 1-1.011-1.55 5.594 5.594 0 0 1-.357-2.05 5.51 5.51 0 0 1 .357-2.034 4.283 4.283 0 0 1 1.011-1.535 4.43 4.43 0 0 1 1.559-.973 5.672 5.672 0 0 1 2.006-.34zm0 7.697c.664 0 1.15-.23 1.461-.692.312-.463.469-1.163.469-2.105s-.157-1.642-.469-2.1c-.312-.46-.798-.69-1.461-.69s-1.176.224-1.493.69c-.317.465-.473 1.158-.473 2.1 0 .942.159 1.642.473 2.105.315.464.814.692 1.493.692zM114.619 22.693c.093.797.337 1.372.734 1.73.421.367.97.56 1.533.537.292.005.583-.035.862-.119a4.56 4.56 0 0 0 .646-.266l.518-.266c.154-.08.325-.12.498-.119.205-.011.4.082.519.246l.836 1.02c-.277.32-.6.595-.96.82a4.972 4.972 0 0 1-1.058.496c-.354.117-.718.2-1.087.248a8.446 8.446 0 0 1-1.035.068 5.47 5.47 0 0 1-1.9-.325 4.369 4.369 0 0 1-1.549-.969 4.56 4.56 0 0 1-1.05-1.595c-.27-.71-.4-1.462-.385-2.22a4.968 4.968 0 0 1 .33-1.807 4.427 4.427 0 0 1 2.441-2.515 5.375 5.375 0 0 1 3.732-.08c.51.183.973.474 1.359.852.391.39.695.857.89 1.371.223.588.332 1.212.321 1.84a4.09 4.09 0 0 1-.027.523.834.834 0 0 1-.104.32.377.377 0 0 1-.2.165.927.927 0 0 1-.318.045h-5.546zm3.623-1.651c0-.223-.03-.445-.088-.66a1.483 1.483 0 0 0-.813-.982 1.817 1.817 0 0 0-.788-.155 1.735 1.735 0 0 0-1.282.463 2.401 2.401 0 0 0-.614 1.343l3.585-.01z"/>
            <g>
                <path d="M83.457 36.96a5.38 5.38 0 0 1 1.87-1.15 6.699 6.699 0 0 1 2.407-.423c.67-.01 1.34.088 1.986.29.542.165 1.054.438 1.513.806.4.323.728.746.96 1.237a3.79 3.79 0 0 1 .334 1.598c.005.64-.125 1.27-.379 1.841a3.334 3.334 0 0 1-1.191 1.406c.268.159.522.348.758.564.224.202.424.438.594.7.163.251.292.528.383.822.095.3.142.618.14.937a5.353 5.353 0 0 1-.336 1.913 4.414 4.414 0 0 1-.977 1.547 4.548 4.548 0 0 1-1.581 1.039 5.629 5.629 0 0 1-2.136.386c-.453 0-.904-.048-1.348-.141a7.48 7.48 0 0 1-2.487-1.015 5.472 5.472 0 0 1-.967-.791l.893-1.604a.936.936 0 0 1 .28-.29.672.672 0 0 1 .38-.116c.202.006.398.073.57.193.198.13.423.27.675.426.285.17.582.313.889.426a3.83 3.83 0 0 0 2.097.086c.241-.06.468-.18.666-.349.183-.166.327-.382.416-.628a2.78 2.78 0 0 0 .141-.945 1.704 1.704 0 0 0-.165-.77 1.55 1.55 0 0 0-.464-.564 2.06 2.06 0 0 0-.714-.34 3.24 3.24 0 0 0-.915-.1h-1.907v-2.658h1.65c.75 0 1.306-.144 1.67-.433.36-.282.566-.756.545-1.252.01-.443-.178-.862-.5-1.111-.334-.275-.833-.41-1.501-.41a3.204 3.204 0 0 0-1.013.145c-.263.088-.52.2-.769.332-.217.12-.418.23-.587.329a.941.941 0 0 1-.469.146.577.577 0 0 1-.38-.121 1.276 1.276 0 0 1-.282-.364l-.749-1.594zM105.688 49.15v4.933a.949.949 0 0 1-.217.659.705.705 0 0 1-.57.257h-1.76v-3.538h-6.25v2.662c0 .11-.015.219-.045.323a.863.863 0 0 1-.14.282.673.673 0 0 1-.239.198.762.762 0 0 1-.343.073h-1.78v-5.757h.22c.202 0 .403-.025.6-.076a1.23 1.23 0 0 0 .561-.36 2.81 2.81 0 0 0 .496-.833c.187-.483.33-.987.425-1.503a25.27 25.27 0 0 0 .343-2.374c.1-.947.18-2.09.238-3.43h6.72v8.484h1.741zm-4.433.092V43.05h-1.733c-.055.762-.123 1.46-.205 2.092-.081.632-.172 1.2-.275 1.706-.09.458-.203.91-.34 1.353-.108.358-.239.706-.391 1.04h2.944zM112.136 40.667a5.626 5.626 0 0 1 1.995.34 4.363 4.363 0 0 1 1.543.973c.44.436.781.96 1.002 1.535.246.65.367 1.34.357 2.034.01.699-.111 1.394-.357 2.05-.22.58-.562 1.108-1.002 1.55-.439.43-.965.765-1.543.98a5.528 5.528 0 0 1-1.995.344 5.594 5.594 0 0 1-2.009-.344 4.454 4.454 0 0 1-1.556-.98 4.327 4.327 0 0 1-1.011-1.55 5.539 5.539 0 0 1-.358-2.05 5.463 5.463 0 0 1 .358-2.034 4.282 4.282 0 0 1 1.01-1.535 4.44 4.44 0 0 1 1.557-.973 5.693 5.693 0 0 1 2.009-.34zm0 7.696c.663 0 1.15-.23 1.461-.69.312-.464.468-1.164.468-2.106s-.156-1.642-.468-2.101c-.312-.459-.798-.69-1.461-.69s-1.179.225-1.493.69c-.315.465-.473 1.159-.473 2.1 0 .943.158 1.643.473 2.106.314.463.812.691 1.493.691zM121.438 42.199a5.32 5.32 0 0 1 1.374-1.102 3.718 3.718 0 0 1 1.833-.429 3.06 3.06 0 0 1 1.49.373c.468.259.872.626 1.182 1.075a5.56 5.56 0 0 1 .78 1.722c.196.753.29 1.53.28 2.31a7.39 7.39 0 0 1-.322 2.235 5.723 5.723 0 0 1-.903 1.777 4.21 4.21 0 0 1-1.39 1.178 3.803 3.803 0 0 1-1.793.424 3.392 3.392 0 0 1-1.351-.237 3.702 3.702 0 0 1-.993-.64V55h-3.079V40.877h1.909a.728.728 0 0 1 .753.538l.23.784zm.187 6.484c.208.242.466.433.755.557.273.11.563.166.855.164.271.003.539-.057.785-.174.25-.13.464-.324.62-.565.196-.307.335-.65.412-1.009a6.581 6.581 0 0 0 .148-1.513 7.198 7.198 0 0 0-.119-1.427 3.01 3.01 0 0 0-.332-.936 1.325 1.325 0 0 0-.51-.504 1.422 1.422 0 0 0-.667-.154 2.162 2.162 0 0 0-1.112.252c-.32.198-.603.454-.835.757v4.552zM135.581 40.667a5.626 5.626 0 0 1 1.995.34 4.363 4.363 0 0 1 1.543.973c.44.436.781.96 1.002 1.535.246.65.368 1.34.357 2.034.01.699-.11 1.394-.357 2.05-.22.58-.561 1.108-1.002 1.55-.438.43-.964.765-1.543.98a5.528 5.528 0 0 1-1.995.344 5.594 5.594 0 0 1-2.008-.344 4.454 4.454 0 0 1-1.557-.98 4.327 4.327 0 0 1-1.01-1.55 5.539 5.539 0 0 1-.358-2.05 5.463 5.463 0 0 1 .357-2.034 4.282 4.282 0 0 1 1.011-1.535 4.44 4.44 0 0 1 1.557-.973 5.693 5.693 0 0 1 2.008-.34zm0 7.696c.664 0 1.15-.23 1.461-.69.313-.464.469-1.164.469-2.106s-.156-1.642-.469-2.101c-.312-.459-.798-.69-1.46-.69-.664 0-1.18.225-1.494.69-.314.465-.472 1.159-.472 2.1 0 .943.158 1.643.472 2.106.315.463.815.691 1.493.691zM146.59 40.667a8.318 8.318 0 0 1 1.843.18c.46.097.898.266 1.292.5.646.38 1.029 1.03 1.013 1.72a2.553 2.553 0 0 1-.09.656 1.923 1.923 0 0 1-.313.643 2.208 2.208 0 0 1-.61.558c-.3.185-.636.321-.99.401.32.066.632.164.928.293.273.118.523.273.742.46.206.184.37.4.485.64.123.261.182.543.176.826.015.468-.112.93-.37 1.337a2.866 2.866 0 0 1-.966.91 4.697 4.697 0 0 1-1.387.517 7.62 7.62 0 0 1-1.595.166h-4.756v-9.807h4.599zm-1.482 1.833v2.164h1.387c.364.013.718-.104.985-.325.255-.218.395-.522.382-.837a1.04 1.04 0 0 0-.065-.36.762.762 0 0 0-.222-.32 1.23 1.23 0 0 0-.424-.23 2.062 2.062 0 0 0-.656-.09l-1.387-.002zm1.61 6.038c.355.017.704-.09.974-.298a.99.99 0 0 0 .361-.806c0-.134-.017-.268-.049-.399a.696.696 0 0 0-.191-.33.95.95 0 0 0-.408-.23 2.36 2.36 0 0 0-.688-.08h-1.61v2.134l1.61.009zM158.109 44.14a6.887 6.887 0 0 1 1.985.25c.495.143.949.38 1.331.692.336.275.592.617.75.997.159.382.239.786.237 1.193a2.91 2.91 0 0 1-.29 1.3c-.19.39-.477.738-.84 1.017a4.09 4.09 0 0 1-1.347.653 6.37 6.37 0 0 1-1.803.23h-4.796v-9.805h3.131v3.462l1.642.011zm0 4.314c.372.023.737-.095 1.004-.326.235-.236.357-.542.342-.856a1.12 1.12 0 0 0-.08-.422.986.986 0 0 0-.246-.358 1.13 1.13 0 0 0-.423-.247 1.8 1.8 0 0 0-.597-.09h-1.629v2.308l1.629-.01zM166.805 46.08c.093.796.34 1.37.734 1.729a2.2 2.2 0 0 0 1.532.537c.293.005.584-.035.863-.119.222-.071.438-.16.645-.266.188-.099.362-.186.52-.266.154-.08.324-.12.497-.119a.603.603 0 0 1 .52.246l.836 1.02a4.288 4.288 0 0 1-.962.82 4.87 4.87 0 0 1-1.058.496c-.353.117-.717.2-1.086.248a8.442 8.442 0 0 1-1.035.068 5.457 5.457 0 0 1-1.897-.325 4.377 4.377 0 0 1-1.553-.969 4.555 4.555 0 0 1-1.048-1.595 5.872 5.872 0 0 1-.387-2.22 4.969 4.969 0 0 1 .33-1.808 4.424 4.424 0 0 1 2.44-2.514 5.379 5.379 0 0 1 3.734-.081c.51.185.972.475 1.358.852.392.39.696.858.892 1.372.221.588.33 1.212.32 1.84.001.174-.008.349-.028.523a.799.799 0 0 1-.102.32.386.386 0 0 1-.199.165.931.931 0 0 1-.321.045h-5.545zm3.623-1.652c0-.223-.03-.445-.089-.66a1.597 1.597 0 0 0-.29-.573 1.473 1.473 0 0 0-.522-.41 1.83 1.83 0 0 0-.79-.154 1.737 1.737 0 0 0-1.282.463c-.34.374-.553.844-.611 1.343l3.584-.01z"/>
            </g>
        </g>
        <rect width="66" height="66" fill="#FFF" rx="15"/>
        <path fill="url(#a)" d="M29.529 54.174c-3.015-3.29-.809-8.67 3.648-8.793h.558c4.503.026 6.813 5.428 3.769 8.752l-.158.173a5.225 5.225 0 0 1-7.7 0l-.117-.132zM17.565 40.599a285.976 285.976 0 0 0 3.566 4.18 1.582 1.582 0 0 0 2.04.308 19.586 19.586 0 0 1 20.761-.106 1.585 1.585 0 0 0 2.027-.315 378.72 378.72 0 0 0 3.567-4.187 1.605 1.605 0 0 0-.348-2.367 28.152 28.152 0 0 0-31.273.128 1.6 1.6 0 0 0-.34 2.359zM10.2 30.906c.792 1.287 1.919 2.846 3.229 4.57a1.59 1.59 0 0 0 2.175.327 31.448 31.448 0 0 1 35.885-.12c.695.48 1.642.332 2.159-.337a53.22 53.22 0 0 0 3.219-4.584 1.602 1.602 0 0 0-.461-2.146 40.014 40.014 0 0 0-45.77.142 1.605 1.605 0 0 0-.436 2.148zM33.41 14.895a5.03 5.03 0 0 1-3.387-1.335c-3.907-3.548-9.573-4.654-14.495-2.352-4.826 2.256-7.606 7.165-7.526 12.334a1.6 1.6 0 0 0 .836 1.387 1.591 1.591 0 0 0 1.615-.057 43.087 43.087 0 0 1 22.935-6.694h.24a43.13 43.13 0 0 1 22.913 6.525c.492.32 1.12.343 1.633.06.514-.283.83-.826.826-1.414 0-5.096-2.763-9.914-7.527-12.141-4.922-2.302-10.587-1.203-14.494 2.352a5.049 5.049 0 0 1-3.404 1.335h-.165z"/>
    </g>
</symbol><symbol id="play-store-copy" viewBox="0 0 89 27">
    
    <g fill="none" fill-rule="evenodd" transform="translate(1 1)">
        <rect width="87" height="24.745" y=".117" fill-rule="nonzero" stroke="#FFF" rx="12.372"/>
        <path fill="url(#a)" fill-rule="nonzero" d="M5.894 3.095L.603.112C.309-.053.016.047.016.392v12.152c0 .259.21.371.465.227L5.894 9.72l1.052-.593 1.691-.953 2.637-1.486c.31-.174.28-.414.019-.551A352.438 352.438 0 0 1 8.637 4.64L5.894 3.095z" transform="translate(10.175 6.05)"/>
        <path fill="url(#b)" fill-rule="nonzero" d="M6.817 6.337L.245 0C.092.036 0 .153 0 .35v12.125c0 .166.066.265.147.3l6.67-6.438z" transform="translate(10.175 6.1)"/>
        <g transform="translate(10.175 6.1)">
            <mask id="d" fill="#fff">
                <use xlink:href="#c"/>
            </mask>
            <path d="M8.632 4.59L5.886 3.045C5.876 3.066.88.244.589.1.292-.088 0 .013 0 .35v12.175c0 .267.209.38.441.25.278-.158 5.435-3.072 5.445-3.095l2.746-1.547c-.014.022 2.312-1.293 2.6-1.447.33-.195.301-.434.049-.548-.27-.162-2.663-1.523-2.649-1.547" mask="url(#d)"/>
        </g>
        <g transform="translate(10.322 12.413)">
            <mask id="g" fill="#fff">
                <use xlink:href="#e"/>
            </mask>
            <path fill="url(#f)" fill-rule="nonzero" d="M5.74-3.269c-.01.023-5.007-2.8-5.298-2.944-.296-.187-.588-.087-.588.25V6.212c0 .268.209.38.441.25C.573 6.304 5.73 3.39 5.74 3.368l2.747-1.547c-.015.022 2.312-1.293 2.6-1.447.33-.195.3-.435.048-.549-.27-.16-2.663-1.522-2.648-1.547L5.739-3.269z" mask="url(#g)"/>
        </g>
        <g>
            <path fill="url(#h)" fill-rule="nonzero" d="M.399.107a.485.485 0 0 0-.354-.06l6.577 6.346 1.82-1.752L5.7 3.095 1.553.758.399.108z" transform="translate(10.37 6.05)"/>
            <g transform="translate(10.37 6.05)">
                <mask id="j" fill="#fff">
                    <use xlink:href="#i"/>
                </mask>
                <path d="M8.437 4.64L5.69 3.095C5.68 3.116.685.294.393.15.097-.038-.195.063-.195.4v12.174c0 .268.209.38.441.25.278-.157 5.435-3.07 5.444-3.094l2.747-1.547c-.014.022 2.312-1.293 2.6-1.447.33-.195.3-.434.048-.549-.269-.16-2.662-1.522-2.648-1.546" mask="url(#j)"/>
            </g>
        </g>
        <g fill="#FFF" fill-rule="nonzero">
            <path d="M56.734 18.076l-.542.52c-.125.07-.25.15-.374.208a2.59 2.59 0 0 1-1.1.217c-.361 0-.929-.024-1.508-.449-.804-.575-1.156-1.564-1.156-2.426 0-1.784 1.43-2.659 2.597-2.659.408 0 .826.104 1.167.322.566.38.713.875.794 1.14l-2.664 1.092-.872.07c.282 1.462 1.256 2.313 2.333 2.313.538 0 .937-.178 1.304-.362 0 0 .073-.04.021.014zm-1.628-2.935c.214-.08.325-.15.325-.31 0-.463-.506-.998-1.11-.998-.448 0-1.288.36-1.288 1.612 0 .196.023.404.034.612l2.04-.916z"/>
            <path d="M51.175 18.013c0 .446.078.516.45.55.193.024.386.034.576.057l-.417.253h-1.99c.26-.344.305-.379.305-.608v-.256l-.004-6.825h-.88l.847-.414h1.615c-.35.206-.455.331-.5.733l-.002 6.51"/>
            <path d="M48.087 14.05c.259.217.799.677.799 1.549 0 .85-.47 1.25-.946 1.63-.145.15-.316.311-.316.561 0 .254.17.392.293.495l.408.32c.495.425.946.816.946 1.608 0 1.08-1.026 2.168-2.966 2.168-1.634 0-2.424-.792-2.424-1.641 0-.413.202-.999.87-1.4.698-.435 1.645-.493 2.153-.527-.159-.208-.34-.426-.34-.782 0-.194.058-.31.113-.447-.123.012-.247.024-.36.024-1.196 0-1.872-.908-1.872-1.803 0-.528.237-1.113.722-1.538.643-.539 1.41-.632 2.019-.632h2.324l-.723.415h-.7zm-.794 5.083c-.093-.013-.149-.013-.261-.013-.103 0-.717.023-1.193.187-.252.095-.979.374-.979 1.204 0 .828.785 1.426 2 1.426 1.091 0 1.67-.538 1.67-1.262 0-.596-.374-.91-1.237-1.542zm.32-2.21c.259-.265.281-.63.281-.837 0-.823-.481-2.105-1.414-2.105-.291 0-.607.15-.786.38-.19.238-.247.547-.247.844 0 .767.439 2.037 1.403 2.037.282 0 .585-.139.762-.32zM41.06 19.021c-1.797 0-2.758-1.43-2.758-2.725 0-1.514 1.208-2.809 2.927-2.809 1.66 0 2.701 1.33 2.701 2.727 0 1.364-1.028 2.807-2.87 2.807zm1.404-.935c.274-.371.34-.834.34-1.285 0-1.021-.475-2.968-1.881-2.968-.374 0-.751.15-1.023.393-.442.406-.521.916-.521 1.416 0 1.145.553 3.033 1.928 3.033.443 0 .896-.219 1.157-.59zM35.04 19.021c-1.798 0-2.758-1.43-2.758-2.725 0-1.514 1.21-2.809 2.928-2.809 1.66 0 2.7 1.33 2.7 2.727 0 1.364-1.027 2.807-2.87 2.807zm1.405-.935c.272-.371.34-.834.34-1.285 0-1.021-.478-2.968-1.883-2.968-.376 0-.748.15-1.02.393-.444.406-.523.916-.523 1.416 0 1.145.556 3.033 1.929 3.033.443 0 .895-.219 1.157-.59zM31.537 18.68l-1.521.353c-.617.1-1.17.186-1.756.186-2.935 0-4.053-2.195-4.053-3.913 0-2.097 1.584-4.042 4.297-4.042.574 0 1.127.085 1.63.225.797.227 1.17.508 1.403.672l-.884.853-.372.085.265-.43c-.36-.357-1.021-1.016-2.276-1.016-1.679 0-2.945 1.296-2.945 3.189 0 2.033 1.446 3.945 3.764 3.945.682 0 1.033-.14 1.351-.27v-1.742l-1.606.088.851-.465h2.255l-.276.27c-.075.064-.085.086-.105.172a7.849 7.849 0 0 0-.022.521v1.318M60.017 18.129v2.918h-.572v-7.426h.572v.846a2.27 2.27 0 0 1 1.847-.98c1.42 0 2.377 1.09 2.377 2.816 0 1.715-.957 2.828-2.377 2.828-.748 0-1.417-.39-1.847-1.002zm3.637-1.781c0-1.315-.673-2.317-1.866-2.317-.74 0-1.448.593-1.756 1.11v2.402c.308.518 1.016 1.132 1.756 1.132 1.193 0 1.866-1.01 1.866-2.327zM65.024 11.56h.587v7.461h-.587zM71.996 20.533c.123.056.332.09.464.09.35 0 .595-.145.814-.657l.417-.958-2.256-5.422h.64l1.935 4.698 1.916-4.698h.648l-2.752 6.56c-.285.675-.735 1-1.352 1a2.24 2.24 0 0 1-.572-.078l.098-.535M70.38 19.014a10.141 10.141 0 0 1-.089-.49 3.33 3.33 0 0 1-.027-.422 2.29 2.29 0 0 1-.835.73 2.276 2.276 0 0 1-1.164.288c-.56 0-.996-.14-1.307-.423-.31-.283-.466-.666-.466-1.152 0-.484.226-.877.676-1.178.45-.302 1.032-.453 1.752-.453h1.344v-.671c0-.387-.13-.691-.39-.912-.262-.22-.629-.332-1.104-.332-.434 0-.786.102-1.055.3-.266.203-.4.455-.4.757h-.589l-.012-.029c-.021-.408.163-.766.556-1.075.39-.31.902-.465 1.532-.465.628 0 1.137.153 1.52.458.382.303.574.74.574 1.31v2.667a3.572 3.572 0 0 0 .147 1.092h-.663zm-2.045-.388c.489 0 .84-.111 1.199-.331.357-.219.6-.504.727-.85v-1.043h-1.349c-.515 0-.942.116-1.277.35-.336.234-.507.516-.507.845 0 .31.108.557.323.745.215.19.509.284.884.284z"/>
        </g>
        <path fill="#FFF" fill-rule="nonzero" d="M24.704 7.795h.266c.229-.418.42-.888.574-1.408.154-.521.253-1.043.297-1.567h1.782v2.975h.446v1.439h-.543V8.28h-2.28v.954h-.542v-1.44zm1.61-2.485a6.657 6.657 0 0 1-.265 1.246 7.367 7.367 0 0 1-.484 1.239h1.494V5.31h-.746zm4.568 1.657c0 .427-.109.76-.328 1-.218.24-.523.36-.913.36-.244 0-.46-.055-.647-.165a1.093 1.093 0 0 1-.432-.476 1.624 1.624 0 0 1-.15-.72c0-.424.108-.755.325-.993.217-.239.523-.358.918-.358.378 0 .677.122.897.366.22.244.33.572.33.986zm-1.9 0c0 .604.223.906.668.906.44 0 .661-.302.661-.906 0-.598-.222-.897-.665-.897-.233 0-.402.077-.507.232-.104.154-.157.376-.157.665zm3.59 1.36c-.395 0-.695-.115-.9-.346-.206-.231-.308-.563-.308-.996 0-.44.107-.778.322-1.015.215-.236.525-.355.93-.355.276 0 .524.051.744.154l-.167.447c-.235-.091-.428-.137-.58-.137-.452 0-.678.3-.678.902 0 .293.056.514.169.661.112.148.277.222.494.222.247 0 .48-.062.701-.185v.485c-.1.058-.205.1-.317.126a1.9 1.9 0 0 1-.41.037zm3.302-2.664v.435h-.85V8.28h-.557V6.098h-.85v-.435h2.257zm.106 0h.604l.531 1.483c.08.212.134.41.16.597h.02c.014-.087.04-.192.077-.316.038-.124.238-.712.6-1.764h.6l-1.117 2.965c-.203.544-.541.816-1.015.816-.123 0-.242-.013-.359-.04v-.44c.084.019.179.028.286.028.267 0 .455-.155.564-.466l.097-.246-1.048-2.617zm5.27 0V8.28h-.557V6.103h-1.17V8.28h-.555V5.663h2.282zm1.347 0v1.05h1.23v-1.05h.555V8.28h-.555V7.151h-1.23V8.28h-.554V5.663h.554zm4.893 1.304c0 .427-.11.76-.328 1-.219.24-.523.36-.914.36-.243 0-.459-.055-.646-.165a1.093 1.093 0 0 1-.432-.476 1.624 1.624 0 0 1-.151-.72c0-.424.108-.755.326-.993.217-.239.523-.358.918-.358.377 0 .676.122.896.366.22.244.33.572.33.986zm-1.9 0c0 .604.223.906.668.906.44 0 .66-.302.66-.906 0-.598-.221-.897-.665-.897-.233 0-.401.077-.506.232-.105.154-.157.376-.157.665zm6.058-.635c0 .31-.18.496-.54.561v.02c.201.023.355.087.462.19a.54.54 0 0 1 .16.406.658.658 0 0 1-.281.571c-.188.133-.462.2-.82.2h-1.246V5.663h1.24c.684 0 1.025.223 1.025.67zm-.486 1.143c0-.126-.049-.215-.146-.268-.098-.053-.244-.08-.44-.08h-.639v.741h.654c.38 0 .571-.13.571-.393zm-.068-1.095c0-.105-.04-.18-.122-.226-.081-.047-.202-.07-.362-.07h-.673v.63h.59c.186 0 .327-.025.423-.073.096-.048.144-.135.144-.261z"/>
    </g>
</symbol><symbol id="play-store" viewBox="0 0 162 46">
    
    <g fill="none" fill-rule="evenodd" transform="translate(1 1)">
        <rect width="160.286" height="44" fill-rule="nonzero" stroke="#FFF" rx="22"/>
        <path fill="url(#a)" fill-rule="nonzero" d="M10.562 5.505L1.08.199C.553-.095.029.083.029.7V22.31c0 .46.374.66.832.405l9.701-5.428 1.884-1.054 3.031-1.695s4.17-2.334 4.725-2.643c.554-.31.501-.736.034-.98-.469-.245-4.759-2.662-4.759-2.662l-4.915-2.75z" transform="translate(20.653 15.714)"/>
        <path fill="url(#b)" fill-rule="nonzero" d="M12.216 11.271L.44 0C.165.064 0 .272 0 .621v21.567c0 .296.118.473.264.532l11.952-11.449z" transform="translate(20.653 15.803)"/>
        <g transform="translate(20.653 15.803)">
            <mask id="d" fill="#fff">
                <use xlink:href="#c"/>
            </mask>
            <path d="M15.468 8.165l-4.922-2.751c-.017.04-8.97-4.98-9.491-5.236C.524-.156 0 .023 0 .62v21.656c0 .476.374.676.791.443.498-.28 9.738-5.461 9.755-5.502l4.922-2.751c-.026.038 4.143-2.3 4.658-2.574.593-.347.54-.773.088-.977-.483-.286-4.772-2.708-4.746-2.75" mask="url(#d)"/>
        </g>
        <g transform="translate(20.915 27.03)">
            <mask id="g" fill="#fff">
                <use xlink:href="#e"/>
            </mask>
            <path fill="url(#f)" fill-rule="nonzero" d="M10.284-5.814c-.017.04-8.97-4.98-9.492-5.236-.53-.334-1.054-.155-1.054.444v21.655c0 .476.374.676.79.444.498-.28 9.739-5.462 9.756-5.503l4.922-2.75c-.026.037 4.143-2.3 4.658-2.575.593-.347.54-.773.087-.976-.482-.287-4.77-2.708-4.745-2.751l-4.922-2.752z" mask="url(#g)"/>
        </g>
        <g>
            <path fill="url(#h)" fill-rule="nonzero" d="M.714.19C.488.069.262.034.08.083L11.867 11.37l3.26-3.116-4.915-2.75-7.43-4.157L.714.191z" transform="translate(21.003 15.714)"/>
            <g transform="translate(21.003 15.714)">
                <mask id="j" fill="#fff">
                    <use xlink:href="#i"/>
                </mask>
                <path d="M15.118 8.254l-4.921-2.751c-.018.04-8.97-4.98-9.492-5.237C.175-.067-.35.112-.35.71v21.655c0 .476.375.676.791.444.498-.28 9.738-5.462 9.756-5.502l4.921-2.752c-.025.039 4.143-2.3 4.658-2.574.594-.346.54-.773.088-.976-.483-.286-4.771-2.708-4.746-2.751" mask="url(#j)"/>
            </g>
        </g>
        <g fill="#FFF" fill-rule="nonzero">
            <path d="M104.081 30.506l-.97.924c-.225.124-.449.268-.671.37-.675.31-1.36.387-1.97.387-.649 0-1.666-.042-2.703-.799-1.441-1.023-2.071-2.782-2.071-4.314 0-3.174 2.563-4.73 4.653-4.73.73 0 1.48.184 2.09.573 1.015.676 1.278 1.555 1.423 2.026l-4.773 1.944-1.563.122c.506 2.602 2.252 4.115 4.182 4.115.963 0 1.679-.317 2.335-.644 0 0 .132-.069.038.026zm-2.916-5.22c.383-.143.582-.266.582-.553 0-.823-.907-1.774-1.99-1.774-.801 0-2.307.641-2.307 2.867 0 .348.04.718.06 1.088l3.655-1.628z"/>
            <path d="M94.12 30.394c0 .794.14.917.805.98.347.04.692.059 1.034.1l-.748.45h-3.567c.468-.613.548-.674.548-1.082v-.455l-.008-12.14H90.61l1.516-.737h2.894c-.627.367-.815.59-.895 1.305l-.005 11.58"/>
            <path d="M88.586 23.346c.464.385 1.432 1.203 1.432 2.754 0 1.512-.843 2.224-1.694 2.899-.261.265-.566.553-.566.999 0 .452.305.697.525.88l.73.568c.887.757 1.696 1.451 1.696 2.86 0 1.92-1.84 3.857-5.315 3.857-2.928 0-4.344-1.409-4.344-2.92 0-.734.363-1.775 1.558-2.489 1.252-.773 2.95-.877 3.858-.937-.284-.37-.608-.758-.608-1.391 0-.346.103-.552.203-.796-.221.022-.444.043-.646.043-2.143 0-3.354-1.615-3.354-3.206 0-.94.423-1.981 1.294-2.736 1.152-.958 2.526-1.123 3.617-1.123h4.164l-1.295.738h-1.255zm-1.421 9.039c-.167-.022-.268-.022-.47-.022-.184 0-1.284.04-2.137.332-.45.169-1.754.666-1.754 2.142 0 1.473 1.407 2.535 3.584 2.535 1.956 0 2.994-.956 2.994-2.244 0-1.06-.672-1.619-2.217-2.743zm.571-3.932c.465-.47.506-1.118.506-1.487 0-1.464-.863-3.743-2.535-3.743-.522 0-1.087.265-1.408.674-.34.424-.442.974-.442 1.503 0 1.363.786 3.623 2.514 3.623.504 0 1.047-.248 1.365-.57zM75.994 32.187c-3.219 0-4.941-2.544-4.941-4.848 0-2.692 2.165-4.995 5.244-4.995 2.977 0 4.841 2.366 4.841 4.85 0 2.426-1.843 4.993-5.144 4.993zm2.517-1.664c.49-.66.61-1.483.61-2.286 0-1.815-.852-5.278-3.372-5.278a2.81 2.81 0 0 0-1.832.7c-.793.721-.935 1.628-.935 2.517 0 2.037.992 5.396 3.455 5.396.795 0 1.606-.39 2.074-1.049zM65.206 32.187c-3.22 0-4.94-2.544-4.94-4.848 0-2.692 2.166-4.995 5.246-4.995 2.976 0 4.84 2.366 4.84 4.85 0 2.426-1.842 4.993-5.146 4.993zm2.519-1.664c.488-.66.61-1.483.61-2.286 0-1.815-.856-5.278-3.375-5.278a2.8 2.8 0 0 0-1.828.7c-.796.721-.937 1.628-.937 2.517 0 2.037.997 5.396 3.457 5.396.793 0 1.603-.39 2.073-1.049zM58.93 31.579l-2.725.63c-1.105.175-2.097.33-3.147.33-5.258 0-7.262-3.904-7.262-6.96 0-3.73 2.839-7.19 7.7-7.19 1.03 0 2.019.153 2.92.4 1.429.405 2.097.904 2.515 1.197l-1.584 1.517-.667.15.476-.765c-.645-.635-1.83-1.807-4.08-1.807-3.008 0-5.276 2.306-5.276 5.672 0 3.616 2.59 7.017 6.745 7.017 1.221 0 1.85-.248 2.42-.479v-3.1l-2.878.157 1.525-.827h4.04l-.494.48c-.133.114-.151.153-.189.306-.02.175-.038.732-.038.928v2.344M109.965 30.6v5.19h-1.027V22.582h1.027v1.505c.668-.973 1.89-1.743 3.309-1.743 2.545 0 4.259 1.939 4.259 5.009 0 3.049-1.714 5.028-4.26 5.028-1.339 0-2.539-.694-3.308-1.781zm6.515-3.168c0-2.338-1.205-4.121-3.342-4.121-1.327 0-2.596 1.054-3.147 1.974v4.272c.551.922 1.82 2.015 3.147 2.015 2.137 0 3.342-1.799 3.342-4.14zM118.936 18.916h1.052v13.271h-1.052zM131.43 34.876c.22.099.594.16.831.16.628 0 1.065-.259 1.458-1.17l.748-1.703-4.043-9.643h1.145l3.468 8.356 3.435-8.356h1.16l-4.93 11.666c-.512 1.202-1.317 1.78-2.423 1.78-.332 0-.77-.06-1.025-.138l.176-.952M128.533 32.174c-.069-.333-.12-.627-.159-.873a5.878 5.878 0 0 1-.05-.75c-.353.523-.854.957-1.495 1.299-.64.344-1.25.513-2.085.513-1.005 0-1.786-.249-2.343-.753-.555-.503-.834-1.185-.834-2.048 0-.862.404-1.561 1.211-2.096.807-.538 1.85-.805 3.14-.805h2.407v-1.194c0-.689-.234-1.23-.7-1.622-.468-.393-1.125-.591-1.976-.591-.778 0-1.41.181-1.89.535-.477.36-.717.807-.717 1.346h-1.056l-.022-.052c-.038-.726.293-1.363.996-1.913.7-.55 1.618-.826 2.747-.826 1.125 0 2.035.272 2.722.815.685.537 1.03 1.314 1.03 2.33v4.742a6.313 6.313 0 0 0 .264 1.943h-1.19zm-3.664-.69c.876 0 1.505-.198 2.149-.59.639-.388 1.074-.895 1.302-1.51V27.53h-2.417c-.923 0-1.687.206-2.289.623-.602.415-.907.917-.907 1.501 0 .552.193.992.578 1.326.385.338.912.505 1.584.505z"/>
        </g>
        <text fill="#FFF" font-family="OpenSans-SemiBold, Open Sans" font-size="10" font-weight="500">
            <tspan x="46" y="13">&#x414;&#x43E;&#x441;&#x442;&#x443;&#x43F;&#x43D;&#x43E; &#x432;</tspan>
        </text>
    </g>
</symbol></svg>