<svg xmlns="http://www.w3.org/2000/svg" width="89" height="27" viewBox="0 0 89 27">
    <g fill="none" fill-rule="nonzero" transform="translate(1 1)">
        <rect width="87" height="24.745" y=".117" stroke="#FFF" rx="12.372"/>
        <g fill="#FFF">
            <path d="M22.992 11.863c-.016-1.76 1.44-2.616 1.507-2.656-.825-1.203-2.103-1.368-2.552-1.38-1.074-.114-2.115.642-2.662.642-.558 0-1.4-.632-2.308-.613-1.168.018-2.26.694-2.86 1.745-1.237 2.143-.314 5.291.87 7.023.594.849 1.286 1.795 2.193 1.762.887-.036 1.218-.566 2.288-.566 1.06 0 1.372.566 2.297.544.951-.014 1.55-.851 2.123-1.708.685-.97.96-1.93.97-1.978-.021-.008-1.847-.705-1.866-2.815M21.246 6.687c.477-.597.803-1.41.712-2.233-.69.03-1.554.478-2.05 1.061-.44.515-.834 1.358-.732 2.151.775.058 1.572-.392 2.07-.98M35.839 18.264h-1.24l-.679-2.135h-2.36l-.647 2.135h-1.206l2.339-7.268h1.444l2.349 7.268zm-2.123-3.03l-.614-1.898a24.434 24.434 0 0 1-.367-1.37h-.021c-.072.31-.188.766-.345 1.37l-.604 1.898h1.95zM41.842 15.58c0 .89-.242 1.595-.726 2.112-.434.46-.972.69-1.615.69-.693 0-1.192-.247-1.495-.743v2.75h-1.164v-5.643c0-.56-.015-1.134-.043-1.723h1.023l.065.831h.022c.388-.626.977-.939 1.768-.939.617 0 1.133.244 1.546.733.412.49.619 1.133.619 1.931zm-1.186.042c0-.51-.114-.93-.345-1.262a1.192 1.192 0 0 0-1.013-.518c-.287 0-.548.097-.78.287-.234.19-.387.44-.459.75a1.513 1.513 0 0 0-.054.353v.875c0 .38.117.702.35.965.234.263.538.394.911.394.438 0 .78-.17 1.023-.507.245-.338.367-.783.367-1.337zM47.866 15.58c0 .89-.242 1.595-.726 2.112-.434.46-.972.69-1.615.69-.693 0-1.192-.247-1.496-.743v2.75h-1.163v-5.643c0-.56-.015-1.134-.043-1.723h1.023l.065.831h.022c.387-.626.976-.939 1.767-.939.617 0 1.134.244 1.547.733.411.49.619 1.133.619 1.931zm-1.186.042c0-.51-.115-.93-.346-1.262a1.19 1.19 0 0 0-1.012-.518c-.287 0-.548.097-.782.287-.233.19-.386.44-.457.75a1.548 1.548 0 0 0-.055.353v.875c0 .38.118.702.35.965.234.262.537.394.912.394.438 0 .78-.17 1.023-.507.245-.338.367-.783.367-1.337zM54.601 16.226c0 .618-.215 1.121-.645 1.51-.473.423-1.133.636-1.979.636-.782 0-1.408-.151-1.88-.453l.268-.97c.51.301 1.071.453 1.681.453.44 0 .78-.1 1.024-.297a.968.968 0 0 0 .367-.792c0-.295-.102-.543-.302-.745-.202-.2-.535-.388-1.002-.56-1.272-.474-1.908-1.169-1.908-2.081 0-.597.225-1.085.673-1.467.449-.381 1.043-.572 1.784-.572.66 0 1.211.116 1.649.346l-.293.949a2.882 2.882 0 0 0-1.395-.335c-.41 0-.733.102-.963.302a.865.865 0 0 0-.293.66c0 .286.112.524.336.71.193.173.545.36 1.055.561.626.252 1.085.546 1.38.884.296.337.443.758.443 1.26M58.458 13.897h-1.282v2.545c0 .647.226.97.679.97.208 0 .38-.018.517-.055l.032.885c-.23.085-.531.129-.905.129-.46 0-.818-.141-1.078-.422-.259-.28-.388-.75-.388-1.412v-2.642h-.764v-.874h.764v-.96l1.143-.345v1.305h1.282v.876M64.234 15.6c0 .806-.23 1.467-.69 1.985-.48.532-1.12.798-1.918.798-.77 0-1.381-.255-1.837-.766-.457-.51-.685-1.153-.685-1.93 0-.811.237-1.476.706-1.994.47-.517 1.105-.776 1.902-.776.77 0 1.386.256 1.854.765.446.496.668 1.134.668 1.919zm-1.206.027c0-.48-.104-.892-.312-1.236-.244-.416-.593-.624-1.045-.624-.466 0-.825.208-1.067.624-.21.344-.313.763-.313 1.258 0 .48.103.894.313 1.237.251.416.602.624 1.057.624.445 0 .793-.213 1.046-.634.214-.353.321-.768.321-1.249zM68.018 14.047a2.025 2.025 0 0 0-.366-.031c-.41 0-.726.153-.949.463-.194.273-.29.619-.29 1.035v2.75h-1.164v-3.59c0-.604-.012-1.155-.034-1.65h1.014l.042 1.003h.032c.124-.345.317-.623.582-.83.26-.189.54-.282.841-.282.108 0 .205.008.291.021l.001 1.111M73.223 15.396c0 .208-.014.384-.043.528h-3.49c.012.518.182.914.506 1.187.294.244.675.366 1.141.366.517 0 .989-.082 1.413-.248l.182.808c-.495.216-1.08.324-1.756.324-.812 0-1.45-.239-1.913-.716-.462-.478-.695-1.121-.695-1.925 0-.79.215-1.448.647-1.973.452-.56 1.063-.84 1.832-.84.754 0 1.326.28 1.713.84.308.444.463.995.463 1.649zm-1.11-.302a1.578 1.578 0 0 0-.226-.895c-.201-.325-.511-.487-.927-.487-.38 0-.69.158-.926.475a1.742 1.742 0 0 0-.344.906h2.423zM30.046 7.795h.267c.228-.418.419-.888.573-1.408.154-.521.253-1.043.297-1.567h1.782v2.975h.446v1.439h-.543V8.28h-2.28v.954h-.542v-1.44zm1.61-2.485a6.657 6.657 0 0 1-.265 1.246 7.367 7.367 0 0 1-.484 1.239h1.494V5.31h-.746zm4.568 1.657c0 .427-.109.76-.328 1-.218.24-.523.36-.913.36-.244 0-.46-.055-.647-.165a1.093 1.093 0 0 1-.431-.476 1.624 1.624 0 0 1-.152-.72c0-.424.109-.755.326-.993.217-.239.523-.358.918-.358.378 0 .677.122.897.366.22.244.33.572.33.986zm-1.9 0c0 .604.223.906.668.906.441 0 .661-.302.661-.906 0-.598-.222-.897-.665-.897-.233 0-.402.077-.506.232-.105.154-.157.376-.157.665zm3.59 1.36c-.395 0-.695-.115-.9-.346-.205-.231-.308-.563-.308-.996 0-.44.107-.778.322-1.015.215-.236.525-.355.931-.355.275 0 .523.051.743.154l-.167.447c-.235-.091-.428-.137-.58-.137-.452 0-.678.3-.678.902 0 .293.056.514.169.661.112.148.277.222.494.222.247 0 .48-.062.701-.185v.485c-.099.058-.205.1-.317.126a1.9 1.9 0 0 1-.41.037zm3.302-2.664v.435h-.85V8.28h-.557V6.098h-.85v-.435h2.257zm.106 0h.604l.531 1.483c.08.212.134.41.16.597h.02c.014-.087.04-.192.077-.316.038-.124.238-.712.6-1.764h.6l-1.117 2.965c-.203.544-.541.816-1.015.816-.122 0-.242-.013-.358-.04v-.44c.083.019.178.028.285.028.268 0 .456-.155.564-.466l.097-.246-1.048-2.617zm5.27 0V8.28h-.557V6.103h-1.17V8.28h-.555V5.663h2.282zm1.348 0v1.05h1.23v-1.05h.554V8.28h-.555V7.151h-1.23V8.28h-.554V5.663h.555zm4.892 1.304c0 .427-.11.76-.328 1-.219.24-.523.36-.913.36-.244 0-.46-.055-.647-.165a1.093 1.093 0 0 1-.432-.476 1.624 1.624 0 0 1-.151-.72c0-.424.109-.755.326-.993.217-.239.523-.358.918-.358.377 0 .676.122.897.366.22.244.33.572.33.986zm-1.9 0c0 .604.223.906.668.906.44 0 .66-.302.66-.906 0-.598-.221-.897-.665-.897-.233 0-.401.077-.506.232-.105.154-.157.376-.157.665zm6.058-.635c0 .31-.18.496-.54.561v.02c.201.023.355.087.462.19a.54.54 0 0 1 .16.406.658.658 0 0 1-.281.571c-.188.133-.462.2-.82.2h-1.246V5.663h1.241c.683 0 1.024.223 1.024.67zm-.486 1.143c0-.126-.049-.215-.146-.268-.098-.053-.244-.08-.44-.08h-.639v.741h.654c.38 0 .571-.13.571-.393zm-.068-1.095c0-.105-.04-.18-.122-.226-.08-.047-.202-.07-.362-.07h-.673v.63h.59c.186 0 .327-.025.423-.073.096-.048.144-.135.144-.261z"/>
        </g>
    </g>
</svg>
